<svg width="20" height="20" viewBox="0 0 20 20" fill="none" xmlns="http://www.w3.org/2000/svg">
<rect x="0.5" y="0.5" width="19" height="19" rx="9.5" fill="#F8F8F8"/>
<rect x="0.5" y="0.5" width="19" height="19" rx="9.5" stroke="#E9EFF3"/>
<path fill-rule="evenodd" clip-rule="evenodd" d="M6 10C6 9.72386 6.22386 9.5 6.5 9.5H13.5C13.7761 9.5 14 9.72386 14 10C14 10.2761 13.7761 10.5 13.5 10.5H6.5C6.22386 10.5 6 10.2761 6 10Z" fill="#0F172A"/>
<path fill-rule="evenodd" clip-rule="evenodd" d="M10 6C10.2761 6 10.5 6.22386 10.5 6.5V13.5C10.5 13.7761 10.2761 14 10 14C9.72386 14 9.5 13.7761 9.5 13.5V6.5C9.5 6.22386 9.72386 6 10 6Z" fill="#0F172A"/>
</svg>
