<svg width="18" height="18" viewBox="0 0 18 18" fill="none" xmlns="http://www.w3.org/2000/svg">
<path fill-rule="evenodd" clip-rule="evenodd" d="M13.5 9.75C12.6716 9.75 12 10.4216 12 11.25C12 12.0784 12.6716 12.75 13.5 12.75C14.3284 12.75 15 12.0784 15 11.25C15 10.4216 14.3284 9.75 13.5 9.75ZM10.5 11.25C10.5 9.59315 11.8431 8.25 13.5 8.25C15.1569 8.25 16.5 9.59315 16.5 11.25C16.5 12.9069 15.1569 14.25 13.5 14.25C11.8431 14.25 10.5 12.9069 10.5 11.25Z" fill="#0F172A"/>
<path fill-rule="evenodd" clip-rule="evenodd" d="M6.75 3C5.50736 3 4.5 4.00736 4.5 5.25C4.5 6.49264 5.50736 7.5 6.75 7.5C7.99264 7.5 9 6.49264 9 5.25C9 4.00736 7.99264 3 6.75 3ZM3 5.25C3 3.17893 4.67893 1.5 6.75 1.5C8.82107 1.5 10.5 3.17893 10.5 5.25C10.5 7.32107 8.82107 9 6.75 9C4.67893 9 3 7.32107 3 5.25Z" fill="#0F172A"/>
<path fill-rule="evenodd" clip-rule="evenodd" d="M1.84835 11.5984C2.55161 10.8951 3.50544 10.5 4.5 10.5H7.5C7.91421 10.5 8.25 10.8358 8.25 11.25C8.25 11.6642 7.91421 12 7.5 12H4.5C3.90326 12 3.33097 12.2371 2.90901 12.659C2.48705 13.081 2.25 13.6533 2.25 14.25V15.75C2.25 16.1642 1.91421 16.5 1.5 16.5C1.08579 16.5 0.75 16.1642 0.75 15.75V14.25C0.75 13.2554 1.14509 12.3016 1.84835 11.5984Z" fill="#0F172A"/>
<path fill-rule="evenodd" clip-rule="evenodd" d="M14.8885 11.8379C15.0195 11.4449 15.4443 11.2325 15.8372 11.3635L16.5122 11.5885C16.9052 11.7195 17.1176 12.1442 16.9866 12.5372C16.8556 12.9302 16.4308 13.1425 16.0379 13.0115L15.3629 12.7865C14.9699 12.6556 14.7576 12.2308 14.8885 11.8379Z" fill="#0F172A"/>
<path fill-rule="evenodd" clip-rule="evenodd" d="M10.0135 9.96286C10.1445 9.5699 10.5693 9.35753 10.9622 9.48852L11.6372 9.71352C12.0302 9.8445 12.2426 10.2692 12.1116 10.6622C11.9806 11.0552 11.5558 11.2675 11.1629 11.1365L10.4879 10.9115C10.0949 10.7806 9.88256 10.3558 10.0135 9.96286Z" fill="#0F172A"/>
<path fill-rule="evenodd" clip-rule="evenodd" d="M12.9122 12.6385C13.3052 12.7695 13.5175 13.1943 13.3865 13.5872L13.1615 14.2622C13.0306 14.6552 12.6058 14.8676 12.2129 14.7366C11.8199 14.6056 11.6075 14.1808 11.7385 13.7879L11.9635 13.1129C12.0945 12.7199 12.5192 12.5076 12.9122 12.6385Z" fill="#0F172A"/>
<path fill-rule="evenodd" clip-rule="evenodd" d="M14.7872 7.76354C15.1802 7.89453 15.3925 8.31927 15.2615 8.71223L15.0365 9.38723C14.9056 9.78018 14.4808 9.99255 14.0879 9.86157C13.6949 9.73058 13.4825 9.30584 13.6135 8.91289L13.8385 8.23789C13.9695 7.84493 14.3942 7.63256 14.7872 7.76354Z" fill="#0F172A"/>
<path fill-rule="evenodd" clip-rule="evenodd" d="M14.1214 12.5786C14.506 12.4248 14.9425 12.6118 15.0963 12.9964L15.3963 13.7464C15.5502 14.131 15.3631 14.5675 14.9785 14.7213C14.5939 14.8752 14.1575 14.6881 14.0036 14.3035L13.7036 13.5535C13.5498 13.1689 13.7368 12.7325 14.1214 12.5786Z" fill="#0F172A"/>
<path fill-rule="evenodd" clip-rule="evenodd" d="M12.0215 7.7787C12.406 7.62486 12.8425 7.81192 12.9964 8.19651L13.2964 8.94651C13.4502 9.3311 13.2631 9.76758 12.8785 9.92141C12.494 10.0752 12.0575 9.88818 11.9036 9.5036L11.6036 8.7536C11.4498 8.36901 11.6369 7.93253 12.0215 7.7787Z" fill="#0F172A"/>
<path fill-rule="evenodd" clip-rule="evenodd" d="M12.1714 11.8714C12.3252 12.256 12.1382 12.6925 11.7536 12.8463L11.0036 13.1463C10.619 13.3002 10.1825 13.1131 10.0287 12.7285C9.87486 12.3439 10.0619 11.9075 10.4465 11.7536L11.1965 11.4536C11.5811 11.2998 12.0176 11.4868 12.1714 11.8714Z" fill="#0F172A"/>
<path fill-rule="evenodd" clip-rule="evenodd" d="M16.9713 9.77146C17.1252 10.156 16.9381 10.5925 16.5535 10.7464L15.8035 11.0464C15.4189 11.2002 14.9825 11.0131 14.8286 10.6285C14.6748 10.244 14.8618 9.80748 15.2464 9.65365L15.9964 9.35365C16.381 9.19981 16.8175 9.38687 16.9713 9.77146Z" fill="#0F172A"/>
</svg>
