<svg width="18" height="18" viewBox="0 0 18 18" fill="none" xmlns="http://www.w3.org/2000/svg">
<path fill-rule="evenodd" clip-rule="evenodd" d="M3 3V15H7.5V3H3ZM1.5 3C1.5 2.17157 2.17157 1.5 3 1.5H7.5C8.32843 1.5 9 2.17157 9 3V15C9 15.8284 8.32843 16.5 7.5 16.5H3C2.17157 16.5 1.5 15.8284 1.5 15V3Z" fill="#0F172A"/>
<path fill-rule="evenodd" clip-rule="evenodd" d="M5.25 1.5C5.66421 1.5 6 1.83579 6 2.25V15.75C6 16.1642 5.66421 16.5 5.25 16.5C4.83579 16.5 4.5 16.1642 4.5 15.75V2.25C4.5 1.83579 4.83579 1.5 5.25 1.5Z" fill="#0F172A"/>
<path fill-rule="evenodd" clip-rule="evenodd" d="M10.4519 3.03142L9.05288 3.54684C9.05161 3.5477 9.04949 3.54929 9.04676 3.55194C9.04079 3.55771 9.03524 3.56531 9.0314 3.57307L13.1471 14.9474C13.148 14.9487 13.1496 14.9507 13.1519 14.9531C13.1577 14.9591 13.1653 14.9646 13.173 14.9685L14.572 14.4531C14.5733 14.4522 14.5754 14.4506 14.5781 14.448C14.5841 14.4422 14.5897 14.4346 14.5935 14.4268L10.4778 3.05247C10.4769 3.05117 10.4753 3.04922 10.473 3.04676C10.4672 3.04081 10.4596 3.03526 10.4519 3.03142ZM9.93268 1.62414C10.7372 1.30993 11.5888 1.79025 11.8713 2.49641C11.8744 2.50414 11.8774 2.51193 11.8802 2.51976L16.0017 13.9101C16.314 14.7139 15.834 15.5641 15.1285 15.8463C15.1221 15.8489 15.1157 15.8513 15.1092 15.8537L13.6922 16.3758C12.8877 16.69 12.0361 16.2097 11.7536 15.5035C11.7505 15.4958 11.7475 15.488 11.7447 15.4801L7.62321 4.08984C7.31088 3.28597 7.79094 2.43578 8.49641 2.15359C8.5028 2.15104 8.50922 2.14857 8.51567 2.14619L9.93268 1.62414Z" fill="#0F172A"/>
</svg>
