<svg width="16" height="16" viewBox="0 0 16 16" fill="none" xmlns="http://www.w3.org/2000/svg">
<g clip-path="url(#clip0_407_9561)">
<path fill-rule="evenodd" clip-rule="evenodd" d="M7.99984 5.99935C6.89527 5.99935 5.99984 6.89478 5.99984 7.99935C5.99984 9.10392 6.89527 9.99935 7.99984 9.99935C9.10441 9.99935 9.99984 9.10392 9.99984 7.99935C9.99984 6.89478 9.10441 5.99935 7.99984 5.99935ZM4.6665 7.99935C4.6665 6.1584 6.15889 4.66602 7.99984 4.66602C9.84079 4.66602 11.3332 6.1584 11.3332 7.99935C11.3332 9.8403 9.84079 11.3327 7.99984 11.3327C6.15889 11.3327 4.6665 9.8403 4.6665 7.99935Z" fill="#0F172A"/>
<path fill-rule="evenodd" clip-rule="evenodd" d="M8.00016 0.666016C8.36835 0.666016 8.66683 0.964492 8.66683 1.33268V2.66602C8.66683 3.03421 8.36835 3.33268 8.00016 3.33268C7.63197 3.33268 7.3335 3.03421 7.3335 2.66602V1.33268C7.3335 0.964492 7.63197 0.666016 8.00016 0.666016Z" fill="#0F172A"/>
<path fill-rule="evenodd" clip-rule="evenodd" d="M8.00016 12.666C8.36835 12.666 8.66683 12.9645 8.66683 13.3327V14.666C8.66683 15.0342 8.36835 15.3327 8.00016 15.3327C7.63197 15.3327 7.3335 15.0342 7.3335 14.666V13.3327C7.3335 12.9645 7.63197 12.666 8.00016 12.666Z" fill="#0F172A"/>
<path fill-rule="evenodd" clip-rule="evenodd" d="M2.81538 2.8144C3.07573 2.55405 3.49784 2.55405 3.75819 2.8144L4.69819 3.7544C4.95854 4.01475 4.95854 4.43686 4.69819 4.69721C4.43784 4.95756 4.01573 4.95756 3.75538 4.69721L2.81538 3.75721C2.55503 3.49686 2.55503 3.07475 2.81538 2.8144Z" fill="#0F172A"/>
<path fill-rule="evenodd" clip-rule="evenodd" d="M11.3017 11.3027C11.5621 11.0423 11.9842 11.0423 12.2445 11.3027L13.1845 12.2427C13.4449 12.503 13.4449 12.9251 13.1845 13.1855C12.9242 13.4458 12.5021 13.4458 12.2417 13.1855L11.3017 12.2455C11.0414 11.9851 11.0414 11.563 11.3017 11.3027Z" fill="#0F172A"/>
<path fill-rule="evenodd" clip-rule="evenodd" d="M0.666504 8.00065C0.666504 7.63246 0.964981 7.33398 1.33317 7.33398H2.6665C3.03469 7.33398 3.33317 7.63246 3.33317 8.00065C3.33317 8.36884 3.03469 8.66732 2.6665 8.66732H1.33317C0.964981 8.66732 0.666504 8.36884 0.666504 8.00065Z" fill="#0F172A"/>
<path fill-rule="evenodd" clip-rule="evenodd" d="M12.6665 8.00065C12.6665 7.63246 12.965 7.33398 13.3332 7.33398H14.6665C15.0347 7.33398 15.3332 7.63246 15.3332 8.00065C15.3332 8.36884 15.0347 8.66732 14.6665 8.66732H13.3332C12.965 8.66732 12.6665 8.36884 12.6665 8.00065Z" fill="#0F172A"/>
<path fill-rule="evenodd" clip-rule="evenodd" d="M4.69819 11.3027C4.95854 11.563 4.95854 11.9851 4.69819 12.2455L3.75819 13.1855C3.49784 13.4458 3.07573 13.4458 2.81538 13.1855C2.55503 12.9251 2.55503 12.503 2.81538 12.2427L3.75538 11.3027C4.01573 11.0423 4.43784 11.0423 4.69819 11.3027Z" fill="#0F172A"/>
<path fill-rule="evenodd" clip-rule="evenodd" d="M13.1845 2.8144C13.4449 3.07475 13.4449 3.49686 13.1845 3.75721L12.2445 4.69721C11.9842 4.95756 11.5621 4.95756 11.3017 4.69721C11.0414 4.43686 11.0414 4.01475 11.3017 3.7544L12.2417 2.8144C12.5021 2.55405 12.9242 2.55405 13.1845 2.8144Z" fill="#0F172A"/>
</g>
<defs>
<clipPath id="clip0_407_9561">
<rect width="16" height="16" fill="white"/>
</clipPath>
</defs>
</svg>
