<svg width="56" height="56" viewBox="0 0 56 56" fill="none" xmlns="http://www.w3.org/2000/svg">
<mask id="path-1-inside-1_2517_963" fill="white">
<path d="M0 28C0 12.536 12.536 0 28 0C43.464 0 56 12.536 56 28C56 43.464 43.464 56 28 56C12.536 56 0 43.464 0 28Z"/>
</mask>
<path d="M0 0H56H0ZM56 56H0H56ZM0 56V0V56ZM29 0C44.464 0 57 12.536 57 28C57 43.464 44.464 56 29 56H28C42.9117 56 55 43.464 55 28C55 12.536 42.9117 0 28 0H29Z" fill="#A91CFF" mask="url(#path-1-inside-1_2517_963)"/>
<g clip-path="url(#clip0_2517_963)">
<path d="M4 28C4 14.7452 14.7452 4 28 4C41.2548 4 52 14.7452 52 28C52 41.2548 41.2548 52 28 52C14.7452 52 4 41.2548 4 28Z" fill="#A91CFF"/>
<path fill-rule="evenodd" clip-rule="evenodd" d="M26.5021 17.4028C26.9577 17.1403 27.4742 17.0021 28 17.0021C28.5258 17.0021 29.0423 17.1403 29.4979 17.4028C29.4986 17.4032 29.4993 17.4036 29.5 17.404L36.4961 21.4018C36.4974 21.4025 36.4987 21.4033 36.5 21.404C36.9556 21.6671 37.334 22.0453 37.5973 22.5008C37.8606 22.9562 37.9995 23.4729 38 23.999V32.0011C37.9995 32.5272 37.8606 33.0439 37.5973 33.4993C37.334 33.9548 36.9556 34.333 36.5 34.5961C36.4987 34.5968 36.4974 34.5976 36.4961 34.5983L29.5 38.5961C29.4994 38.5965 29.4987 38.5968 29.4981 38.5972C29.0425 38.8598 28.5259 38.998 28 38.998C27.4741 38.998 26.9575 38.8598 26.5019 38.5972C26.5013 38.5968 26.5006 38.5965 26.5 38.5961L19.5039 34.5983C19.5026 34.5976 19.5013 34.5968 19.5 34.5961C19.0444 34.333 18.666 33.9548 18.4027 33.4993C18.1394 33.0439 18.0005 32.5272 18 32.0011V23.999C18.0005 23.4729 18.1394 22.9562 18.4027 22.5008C18.666 22.0453 19.0444 21.6671 19.5 21.404C19.5013 21.4033 19.5026 21.4025 19.5039 21.4018L26.5021 17.4028ZM28 19.0021C27.8245 19.0021 27.652 19.0483 27.5 19.1361C27.4987 19.1368 27.4974 19.1376 27.4961 19.1383L20.4984 23.137C20.3473 23.2246 20.2217 23.3504 20.1342 23.5017C20.0465 23.6534 20.0003 23.8254 20 24.0007V31.9995C20.0003 32.1747 20.0465 32.3467 20.1342 32.4984C20.2217 32.6497 20.3472 32.7754 20.4983 32.8631C20.4989 32.8634 20.4994 32.8637 20.5 32.864L27.4961 36.8618C27.4974 36.8625 27.4987 36.8633 27.5 36.864C27.652 36.9518 27.8245 36.998 28 36.998C28.1755 36.998 28.348 36.9518 28.5 36.864C28.5013 36.8633 28.5026 36.8625 28.5039 36.8618L35.5 32.864C35.5005 32.8637 35.5011 32.8634 35.5016 32.8631C35.6528 32.7754 35.7783 32.6497 35.8658 32.4984C35.9535 32.3466 35.9998 32.1744 36 31.999V24.0011C35.9998 23.8257 35.9535 23.6535 35.8658 23.5017C35.7783 23.3504 35.6527 23.2246 35.5016 23.137C35.501 23.1367 35.5005 23.1364 35.5 23.1361L28.5039 19.1383C28.5026 19.1376 28.5013 19.1368 28.5 19.1361C28.348 19.0483 28.1755 19.0021 28 19.0021Z" fill="white"/>
<path fill-rule="evenodd" clip-rule="evenodd" d="M18.433 22.5017C18.7082 22.0229 19.3194 21.8578 19.7983 22.133L28 26.8466L36.2017 22.133C36.6805 21.8578 37.2918 22.0229 37.567 22.5017C37.8422 22.9806 37.6771 23.5918 37.1983 23.867L28.4983 28.867C28.1897 29.0443 27.8102 29.0443 27.5017 28.867L18.8017 23.867C18.3229 23.5918 18.1578 22.9806 18.433 22.5017Z" fill="white"/>
<path fill-rule="evenodd" clip-rule="evenodd" d="M28 27C28.5523 27 29 27.4477 29 28V38C29 38.5523 28.5523 39 28 39C27.4477 39 27 38.5523 27 38V28C27 27.4477 27.4477 27 28 27Z" fill="white"/>
<g filter="url(#filter0_f_2517_963)">
<circle cx="48.5" cy="11.5" r="11.5" fill="#CF83FD"/>
</g>
<g filter="url(#filter1_f_2517_963)">
<circle cx="24.5" cy="55.5" r="11.5" fill="#CF83FD"/>
</g>
</g>
<defs>
<filter id="filter0_f_2517_963" x="23" y="-14" width="51" height="51" filterUnits="userSpaceOnUse" color-interpolation-filters="sRGB">
<feFlood flood-opacity="0" result="BackgroundImageFix"/>
<feBlend mode="normal" in="SourceGraphic" in2="BackgroundImageFix" result="shape"/>
<feGaussianBlur stdDeviation="7" result="effect1_foregroundBlur_2517_963"/>
</filter>
<filter id="filter1_f_2517_963" x="-1" y="30" width="51" height="51" filterUnits="userSpaceOnUse" color-interpolation-filters="sRGB">
<feFlood flood-opacity="0" result="BackgroundImageFix"/>
<feBlend mode="normal" in="SourceGraphic" in2="BackgroundImageFix" result="shape"/>
<feGaussianBlur stdDeviation="7" result="effect1_foregroundBlur_2517_963"/>
</filter>
<clipPath id="clip0_2517_963">
<path d="M4 28C4 14.7452 14.7452 4 28 4C41.2548 4 52 14.7452 52 28C52 41.2548 41.2548 52 28 52C14.7452 52 4 41.2548 4 28Z" fill="white"/>
</clipPath>
</defs>
</svg>
