<svg width="14" height="14" viewBox="0 0 14 14" fill="none" xmlns="http://www.w3.org/2000/svg">
<path fill-rule="evenodd" clip-rule="evenodd" d="M7.00002 0.583374C7.32219 0.583374 7.58335 0.844541 7.58335 1.16671V12.8334C7.58335 13.1555 7.32219 13.4167 7.00002 13.4167C6.67785 13.4167 6.41669 13.1555 6.41669 12.8334V1.16671C6.41669 0.844541 6.67785 0.583374 7.00002 0.583374Z" fill="#0F172A"/>
<path fill-rule="evenodd" clip-rule="evenodd" d="M3.68553 3.10222C4.17781 2.60994 4.84549 2.33337 5.54169 2.33337H9.91669C10.2389 2.33337 10.5 2.59454 10.5 2.91671C10.5 3.23887 10.2389 3.50004 9.91669 3.50004H5.54169C5.15491 3.50004 4.78398 3.65369 4.51049 3.92718C4.237 4.20067 4.08335 4.5716 4.08335 4.95837C4.08335 5.34515 4.237 5.71608 4.51049 5.98957C4.78398 6.26306 5.15491 6.41671 5.54169 6.41671H8.45835C9.15455 6.41671 9.82223 6.69327 10.3145 7.18555C10.8068 7.67784 11.0834 8.34551 11.0834 9.04171C11.0834 9.7379 10.8068 10.4056 10.3145 10.8979C9.82223 11.3901 9.15455 11.6667 8.45835 11.6667H3.50002C3.17785 11.6667 2.91669 11.4055 2.91669 11.0834C2.91669 10.7612 3.17785 10.5 3.50002 10.5H8.45835C8.84513 10.5 9.21606 10.3464 9.48955 10.0729C9.76304 9.79941 9.91669 9.42848 9.91669 9.04171C9.91669 8.65493 9.76304 8.284 9.48955 8.01051C9.21606 7.73702 8.84513 7.58337 8.45835 7.58337H5.54169C4.84549 7.58337 4.17781 7.30681 3.68553 6.81453C3.19325 6.32225 2.91669 5.65457 2.91669 4.95837C2.91669 4.26218 3.19325 3.5945 3.68553 3.10222Z" fill="#0F172A"/>
</svg>
