<svg width="16" height="16" viewBox="0 0 16 16" fill="none" xmlns="http://www.w3.org/2000/svg">
<path fill-rule="evenodd" clip-rule="evenodd" d="M3.33331 2.66671C2.96512 2.66671 2.66665 2.96518 2.66665 3.33337V12.6667C2.66665 13.0349 2.96512 13.3334 3.33331 13.3334H12.6666C13.0348 13.3334 13.3333 13.0349 13.3333 12.6667V3.33337C13.3333 2.96518 13.0348 2.66671 12.6666 2.66671H3.33331ZM1.33331 3.33337C1.33331 2.2288 2.22874 1.33337 3.33331 1.33337H12.6666C13.7712 1.33337 14.6666 2.2288 14.6666 3.33337V12.6667C14.6666 13.7713 13.7712 14.6667 12.6666 14.6667H3.33331C2.22874 14.6667 1.33331 13.7713 1.33331 12.6667V3.33337Z" fill="#475569"/>
<path fill-rule="evenodd" clip-rule="evenodd" d="M9.99998 1.33337C10.3682 1.33337 10.6666 1.63185 10.6666 2.00004V14C10.6666 14.3682 10.3682 14.6667 9.99998 14.6667C9.63179 14.6667 9.33331 14.3682 9.33331 14V2.00004C9.33331 1.63185 9.63179 1.33337 9.99998 1.33337Z" fill="#475569"/>
<path fill-rule="evenodd" clip-rule="evenodd" d="M7.13807 5.52864C7.39842 5.78899 7.39842 6.2111 7.13807 6.47145L5.60948 8.00004L7.13807 9.52864C7.39842 9.78899 7.39842 10.2111 7.13807 10.4714C6.87772 10.7318 6.45561 10.7318 6.19526 10.4714L4.19526 8.47145C3.93491 8.2111 3.93491 7.78899 4.19526 7.52864L6.19526 5.52864C6.45561 5.26829 6.87772 5.26829 7.13807 5.52864Z" fill="#475569"/>
</svg>
