<svg width="14" height="14" viewBox="0 0 14 14" fill="none" xmlns="http://www.w3.org/2000/svg">
<path fill-rule="evenodd" clip-rule="evenodd" d="M5.01515 0.886936C6.37502 0.449449 7.84199 0.478248 9.18364 0.968769C9.34452 1.02759 9.47141 1.15414 9.53066 1.31486C9.58991 1.47558 9.57553 1.65422 9.49132 1.80339C9.39313 1.97734 9.34247 2.17408 9.34445 2.37383C9.34643 2.57357 9.40097 2.76927 9.50259 2.94124C9.60421 3.11322 9.74932 3.2554 9.92334 3.35348C10.0973 3.45157 10.2941 3.5021 10.4939 3.5C10.4959 3.49998 10.498 3.49997 10.5 3.49997H10.5583C10.7335 3.49997 10.8994 3.5787 11.0102 3.71441C11.121 3.85012 11.1649 4.02844 11.1299 4.20008C11.1042 4.32579 11.1064 4.45561 11.1365 4.58034C11.1666 4.70508 11.2237 4.82167 11.3039 4.92186C11.384 5.02205 11.4852 5.10339 11.6003 5.16011C11.7137 5.21599 11.8378 5.24663 11.9641 5.24995C12.1365 5.24887 12.2941 5.20003 12.3348 5.17294C12.4938 5.06693 12.6946 5.04553 12.8724 5.11567C13.0502 5.18581 13.1823 5.33858 13.2261 5.5246C13.5536 6.91508 13.4076 8.37506 12.8114 9.67322C12.2153 10.9714 11.2029 12.0335 9.93488 12.6912C8.66682 13.349 7.21553 13.5648 5.81094 13.3045C4.40635 13.0442 3.1288 12.3226 2.18068 11.2541C1.23257 10.1856 0.668115 8.83124 0.576755 7.40566C0.485396 5.98007 0.872353 4.56476 1.67632 3.38397C2.48029 2.20318 3.65529 1.32442 5.01515 0.886936ZM8.22564 1.89512C7.28706 1.66593 6.29935 1.69935 5.37245 1.99754C4.25983 2.35549 3.29847 3.07447 2.64068 4.04057C1.98289 5.00668 1.66628 6.16466 1.74103 7.33104C1.81578 8.49743 2.27761 9.60552 3.05334 10.4798C3.82907 11.354 4.87434 11.9444 6.02355 12.1574C7.17276 12.3704 8.36018 12.1938 9.39768 11.6556C10.4352 11.1174 11.2634 10.2484 11.7512 9.18632C12.1523 8.31302 12.3043 7.3502 12.1968 6.40308C12.1117 6.41249 12.031 6.41663 11.9583 6.41663C11.9545 6.41663 11.9507 6.4166 11.9468 6.41652C11.6475 6.41061 11.3531 6.33894 11.0846 6.20659C10.816 6.07424 10.5799 5.88445 10.3929 5.65067C10.2059 5.41689 10.0725 5.14484 10.0024 4.8538C9.98267 4.77215 9.96809 4.68957 9.95862 4.60653C9.7466 4.55708 9.54174 4.47763 9.35046 4.36981C8.99797 4.17112 8.70402 3.88311 8.49818 3.53476C8.29233 3.1864 8.18185 2.78999 8.17784 2.38538C8.1762 2.22003 8.19237 2.0557 8.22564 1.89512Z" fill="#0F172A"/>
<path fill-rule="evenodd" clip-rule="evenodd" d="M7 5.83329C6.35567 5.83329 5.83333 6.35563 5.83333 6.99996C5.83333 7.64429 6.35567 8.16663 7 8.16663C7.64433 8.16663 8.16666 7.64429 8.16666 6.99996C8.16666 6.35563 7.64433 5.83329 7 5.83329ZM4.66666 6.99996C4.66666 5.71129 5.71133 4.66663 7 4.66663C8.28866 4.66663 9.33333 5.71129 9.33333 6.99996C9.33333 8.28862 8.28866 9.33329 7 9.33329C5.71133 9.33329 4.66666 8.28862 4.66666 6.99996Z" fill="#0F172A"/>
</svg>
