<svg width="16" height="16" viewBox="0 0 16 16" fill="none" xmlns="http://www.w3.org/2000/svg">
<g clip-path="url(#clip0_3769_52256)">
<path fill-rule="evenodd" clip-rule="evenodd" d="M7.99998 0.666626C8.36817 0.666626 8.66665 0.965103 8.66665 1.33329V1.99996C8.66665 2.36815 8.36817 2.66663 7.99998 2.66663C7.63179 2.66663 7.33331 2.36815 7.33331 1.99996V1.33329C7.33331 0.965103 7.63179 0.666626 7.99998 0.666626Z" fill="#0F172A"/>
<path fill-rule="evenodd" clip-rule="evenodd" d="M8 3.39156C7.03938 3.39156 6.10976 3.73162 5.37589 4.35149C4.64202 4.97136 4.15127 5.831 3.99061 6.7781C3.92904 7.1411 3.58485 7.38546 3.22184 7.32388C2.85884 7.2623 2.61448 6.91811 2.67606 6.55511C2.8894 5.29749 3.54104 4.15599 4.51553 3.33289C5.49001 2.50979 6.72442 2.05823 8 2.05823C9.27559 2.05823 10.51 2.50979 11.4845 3.33289C12.459 4.15599 13.1106 5.29749 13.3239 6.55511C13.3855 6.91811 13.1412 7.2623 12.7782 7.32388C12.4152 7.38546 12.071 7.1411 12.0094 6.7781C11.8487 5.831 11.358 4.97136 10.6241 4.35149C9.89024 3.73162 8.96063 3.39156 8 3.39156Z" fill="#0F172A"/>
<path fill-rule="evenodd" clip-rule="evenodd" d="M2 6.66667C2 6.29848 2.29848 6 2.66667 6H13.3333C13.7015 6 14 6.29848 14 6.66667C14 7.03486 13.7015 7.33333 13.3333 7.33333H2.66667C2.29848 7.33333 2 7.03486 2 6.66667Z" fill="#0F172A"/>
<path fill-rule="evenodd" clip-rule="evenodd" d="M0.666687 9.33329C0.666687 8.9651 0.965164 8.66663 1.33335 8.66663H9.33335C9.86379 8.66663 10.3725 8.87734 10.7476 9.25241C11.1226 9.62749 11.3334 10.1362 11.3334 10.6666C11.3334 11.1971 11.1226 11.7058 10.7476 12.0808C10.3725 12.4559 9.86379 12.6666 9.33335 12.6666H8.00002C7.63183 12.6666 7.33335 12.3681 7.33335 12C7.33335 11.6318 7.63183 11.3333 8.00002 11.3333H9.33335C9.51016 11.3333 9.67973 11.2631 9.80476 11.138C9.92978 11.013 10 10.8434 10 10.6666C10 10.4898 9.92978 10.3202 9.80476 10.1952C9.67973 10.0702 9.51016 9.99996 9.33335 9.99996H1.33335C0.965164 9.99996 0.666687 9.70148 0.666687 9.33329Z" fill="#0F172A"/>
<path fill-rule="evenodd" clip-rule="evenodd" d="M13.3452 10.023C13.1657 10.0199 12.9923 10.0882 12.8631 10.2129C12.8553 10.2205 12.8472 10.2278 12.839 10.235L10.7057 12.1017C10.4286 12.3441 10.0074 12.316 9.76498 12.039C9.52252 11.7619 9.5506 11.3407 9.82769 11.0982L11.9499 9.24126C12.3321 8.87881 12.8415 8.68064 13.3686 8.68988C13.9017 8.69924 14.4093 8.91998 14.7796 9.30355C15.15 9.68713 15.3528 10.2021 15.3434 10.7352C15.3341 11.2683 15.1133 11.7759 14.7298 12.1462C14.7256 12.1502 14.7214 12.1542 14.7172 12.1581L12.3425 14.3348C11.7339 15.0124 10.8854 15.3333 10 15.3333H7.33336C6.45068 15.3333 5.60464 15.0143 4.99636 14.3409L2.89436 12.5017C2.61727 12.2592 2.58919 11.838 2.83164 11.5609C3.0741 11.2839 3.49527 11.2558 3.77237 11.4982L5.9057 13.3649C5.92797 13.3844 5.94892 13.4053 5.96841 13.4276C6.29137 13.7967 6.76466 14 7.33336 14H10C10.5687 14 11.042 13.7967 11.365 13.4276C11.3811 13.4092 11.3982 13.3917 11.4162 13.3752L13.8088 11.182C13.9348 11.0577 14.0072 10.889 14.0103 10.7118C14.0135 10.5323 13.9452 10.3589 13.8204 10.2297C13.6957 10.1005 13.5248 10.0262 13.3452 10.023Z" fill="#0F172A"/>
<path fill-rule="evenodd" clip-rule="evenodd" d="M3.33335 8.66663C3.70154 8.66663 4.00002 8.9651 4.00002 9.33329V14C4.00002 14.3681 3.70154 14.6666 3.33335 14.6666H1.33335C0.965164 14.6666 0.666687 14.3681 0.666687 14C0.666687 13.6318 0.965164 13.3333 1.33335 13.3333H2.66669V9.33329C2.66669 8.9651 2.96516 8.66663 3.33335 8.66663Z" fill="#0F172A"/>
</g>
<defs>
<clipPath id="clip0_3769_52256">
<rect width="16" height="16" fill="white"/>
</clipPath>
</defs>
</svg>
