<svg width="18" height="18" viewBox="0 0 18 18" fill="none" xmlns="http://www.w3.org/2000/svg">
<path fill-rule="evenodd" clip-rule="evenodd" d="M3 3V8.25H6.75V3H3ZM6.75093 8.24996C6.75096 8.24996 6.75095 8.24996 6.75091 8.24997L6.75093 8.24996ZM1.5 3C1.5 2.17157 2.17157 1.5 3 1.5H6.75C7.57843 1.5 8.25 2.17157 8.25 3V8.25C8.25 9.07843 7.57843 9.75 6.75 9.75H3C2.17157 9.75 1.5 9.07843 1.5 8.25V3Z" fill="#0F172A"/>
<path fill-rule="evenodd" clip-rule="evenodd" d="M11.25 3V5.25H15V3H11.25ZM11.2491 5.24997C11.249 5.24996 11.249 5.24996 11.2491 5.24996L11.2491 5.24997ZM9.75 3C9.75 2.17157 10.4216 1.5 11.25 1.5H15C15.8284 1.5 16.5 2.17157 16.5 3V5.25C16.5 6.07843 15.8284 6.75 15 6.75H11.25C10.4216 6.75 9.75 6.07843 9.75 5.25V3Z" fill="#0F172A"/>
<path fill-rule="evenodd" clip-rule="evenodd" d="M11.25 9.75V15H15V9.75H11.25ZM15.0009 15C15.001 15 15.001 15 15.0009 15L15.0009 15ZM9.75 9.75C9.75 8.92157 10.4216 8.25 11.25 8.25H15C15.8284 8.25 16.5 8.92157 16.5 9.75V15C16.5 15.8284 15.8284 16.5 15 16.5H11.25C10.4216 16.5 9.75 15.8284 9.75 15V9.75Z" fill="#0F172A"/>
<path fill-rule="evenodd" clip-rule="evenodd" d="M3 12.75V15H6.75V12.75H3ZM2.99909 15C2.99905 15 2.99904 15 2.99907 15L2.99909 15ZM1.5 12.75C1.5 11.9216 2.17157 11.25 3 11.25H6.75C7.57843 11.25 8.25 11.9216 8.25 12.75V15C8.25 15.8284 7.57843 16.5 6.75 16.5H3C2.17157 16.5 1.5 15.8284 1.5 15V12.75Z" fill="#0F172A"/>
</svg>
