<svg width="30" height="33" viewBox="0 0 30 33" fill="none" xmlns="http://www.w3.org/2000/svg">
<path d="M2.13482 12.006C2.49101 8.67041 5.30547 6.1405 8.65998 6.1405H20.4784C23.8275 6.1405 26.6392 8.6625 27.002 11.9919L27.5008 16.5694C28.3391 24.2629 22.3132 30.9811 14.5742 30.9811C6.84635 30.9811 0.82396 24.2814 1.64452 16.5973L2.13482 12.006Z" fill="#0D76E1"/>
<path d="M1.05446 22.548C1.53969 17.9685 5.40252 14.4933 10.0077 14.4933H19.2029C23.8187 14.4933 27.6868 17.984 28.159 22.5756C28.705 27.8843 24.5396 32.5 19.2029 32.5H10.0077C4.65995 32.5 0.490995 27.866 1.05446 22.548Z" fill="#FFA80B"/>
<path d="M20.6643 7.87622L20.6643 6.683C20.6643 3.2682 17.8961 0.49996 14.4813 0.499959C11.0665 0.499959 8.29821 3.2682 8.29821 6.683L8.29821 7.87622" stroke="#0D76E1" stroke-linecap="round"/>
<path d="M11.6656 23.5366V30.8944H19.1341C21.1872 30.8944 22.9452 30.1813 24.4082 28.7553C25.8834 27.3169 26.621 25.5773 26.621 23.5366C26.621 21.4958 25.8834 19.7562 24.4082 18.3178C22.9329 16.8672 21.1749 16.1418 19.1341 16.1418C17.0934 16.1418 15.3353 16.8672 13.8601 18.3178C12.3971 19.7562 11.6656 21.4958 11.6656 23.5366ZM14.7821 27.9623V23.5366C14.7821 22.3195 15.2001 21.2745 16.0361 20.4016C16.8844 19.5165 17.917 19.0739 19.1341 19.0739C20.3512 19.0739 21.3777 19.5165 22.2137 20.4016C23.062 21.2745 23.4861 22.3195 23.4861 23.5366C23.4861 24.7536 23.062 25.7986 22.2137 26.6715C21.3777 27.532 20.3512 27.9623 19.1341 27.9623H14.7821Z" fill="white"/>
<path d="M21.5193 8.42004L19.9051 8.42004" stroke="white" stroke-width="0.5" stroke-linecap="round"/>
<path d="M9.15308 8.42004L7.53892 8.42004" stroke="white" stroke-width="0.5" stroke-linecap="round"/>
</svg>
