<svg width="18" height="18" viewBox="0 0 18 18" fill="none" xmlns="http://www.w3.org/2000/svg">
<path fill-rule="evenodd" clip-rule="evenodd" d="M8.06666 0.952512C8.35971 0.8189 8.67802 0.749756 9.00009 0.749756C9.32208 0.749756 9.64032 0.818865 9.93331 0.952412C9.93333 0.952423 9.93335 0.952434 9.93338 0.952444C9.93353 0.952516 9.93369 0.952587 9.93384 0.952658L16.3724 3.88338C16.6366 4.00093 16.8611 4.19232 17.019 4.43456C17.1779 4.67825 17.2625 4.96287 17.2625 5.25377C17.2625 5.54467 17.1779 5.8293 17.019 6.07299C16.8611 6.31528 16.6365 6.5067 16.3723 6.62424L9.94134 9.54739C9.94123 9.54744 9.94112 9.54749 9.94101 9.54754C9.64797 9.68115 9.32966 9.75029 9.00759 9.75029C8.68549 9.75029 8.36715 9.68113 8.07408 9.5475C8.07405 9.54748 8.07402 9.54747 8.07399 9.54745C8.07394 9.54743 8.07389 9.54741 8.07384 9.54739L1.64257 6.61659C1.37853 6.49903 1.15404 6.30767 0.996149 6.06549C0.837274 5.8218 0.752686 5.53718 0.752686 5.24627C0.752686 4.95537 0.837274 4.67074 0.996149 4.42706C1.15408 4.18482 1.37864 3.99343 1.64277 3.87587L8.06634 0.952658C8.06645 0.952609 8.06656 0.952561 8.06666 0.952512ZM9.00009 2.24976C8.8927 2.24976 8.78656 2.27282 8.68884 2.31739L2.26075 5.24266C2.25807 5.24388 2.25538 5.24509 2.25269 5.24627C2.2555 5.24751 2.25831 5.24877 2.26111 5.25005L8.69634 8.18266C8.79406 8.22723 8.9002 8.25029 9.00759 8.25029C9.11499 8.25029 9.22113 8.22723 9.31884 8.18266L15.7547 5.25725C15.7573 5.25608 15.7599 5.25492 15.7625 5.25377C15.7598 5.25258 15.7571 5.25136 15.7544 5.25013L9.31134 2.31739C9.21363 2.27282 9.10749 2.24976 9.00009 2.24976Z" fill="#0F172A"/>
<path fill-rule="evenodd" clip-rule="evenodd" d="M0.817058 12.9276C0.988181 12.5504 1.4327 12.3834 1.80991 12.5545L8.68741 15.6745L8.68881 15.6751C8.78652 15.7197 8.89267 15.7428 9.00006 15.7428C9.10746 15.7428 9.2136 15.7197 9.31131 15.6751L9.31271 15.6745L16.1902 12.5545C16.5674 12.3834 17.0119 12.5504 17.1831 12.9276C17.3542 13.3049 17.1871 13.7494 16.8099 13.9205L9.93381 17.0399C9.9335 17.04 9.93319 17.0401 9.93288 17.0403C9.64 17.1737 9.32191 17.2428 9.00006 17.2428C8.67818 17.2428 8.36005 17.1737 8.06714 17.0402C8.06687 17.0401 8.06659 17.04 8.06631 17.0399L1.19021 13.9205C0.813002 13.7494 0.645934 13.3049 0.817058 12.9276Z" fill="#0F172A"/>
<path fill-rule="evenodd" clip-rule="evenodd" d="M0.817058 9.17764C0.988181 8.80043 1.4327 8.63336 1.80991 8.80448L8.68741 11.9245L8.68881 11.9251C8.78652 11.9697 8.89267 11.9928 9.00006 11.9928C9.10746 11.9928 9.2136 11.9697 9.31131 11.9251L9.31271 11.9245L16.1902 8.80448C16.5674 8.63336 17.0119 8.80043 17.1831 9.17764C17.3542 9.55485 17.1871 9.99937 16.8099 10.1705L9.93381 13.2899C9.9335 13.29 9.93319 13.2901 9.93288 13.2903C9.64 13.4237 9.32191 13.4928 9.00006 13.4928C8.67818 13.4928 8.36005 13.4237 8.06714 13.2902C8.06687 13.2901 8.06659 13.29 8.06631 13.2899L1.19021 10.1705C0.813002 9.99937 0.645934 9.55485 0.817058 9.17764Z" fill="#0F172A"/>
</svg>
