<svg width="40" height="42" viewBox="0 0 40 42" fill="none" xmlns="http://www.w3.org/2000/svg">
<g filter="url(#filter0_d_3225_42416)">
<path fill-rule="evenodd" clip-rule="evenodd" d="M20.0001 10.25C19.0055 10.25 18.0517 10.6451 17.3484 11.3483C16.6451 12.0516 16.2501 13.0054 16.2501 14C16.2501 16.7355 15.6629 18.549 15.0335 19.7029C14.9764 19.8075 14.9191 19.9065 14.8621 20H25.1381C25.081 19.9065 25.0237 19.8075 24.9666 19.7029C24.3373 18.549 23.7501 16.7355 23.7501 14C23.7501 13.0054 23.355 12.0516 22.6517 11.3483C21.9484 10.6451 20.9946 10.25 20.0001 10.25ZM27.1748 20.1319C27.1743 20.1315 27.1735 20.1309 27.1726 20.1303C27.1669 20.126 27.1535 20.1158 27.1335 20.0991C27.0936 20.0659 27.0273 20.0068 26.943 19.9178C26.7746 19.7401 26.5323 19.4408 26.2835 18.9846C25.7879 18.076 25.2501 16.5145 25.2501 14C25.2501 12.6076 24.6969 11.2723 23.7124 10.2877C22.7278 9.30312 21.3924 8.75 20.0001 8.75C18.6077 8.75 17.2723 9.30312 16.2877 10.2877C15.3032 11.2723 14.7501 12.6076 14.7501 14C14.7501 16.5145 14.2123 18.076 13.7166 18.9846C13.4678 19.4408 13.2255 19.7401 13.0572 19.9178C12.9728 20.0068 12.9065 20.0659 12.8666 20.0991C12.8466 20.1158 12.8332 20.126 12.8275 20.1303C12.8266 20.1309 12.8259 20.1315 12.8253 20.1319C12.5565 20.3165 12.4375 20.6544 12.5322 20.9673C12.628 21.2837 12.9196 21.5 13.2501 21.5H26.7501C27.0806 21.5 27.3721 21.2837 27.4679 20.9673C27.5626 20.6544 27.4437 20.3165 27.1748 20.1319Z" fill="#0F172A"/>
<path fill-rule="evenodd" clip-rule="evenodd" d="M18.3638 23.0928C18.7267 22.8932 19.1828 23.0257 19.3823 23.3887C19.4432 23.4993 19.5326 23.5916 19.6413 23.6558C19.7499 23.7201 19.8739 23.754 20.0001 23.754C20.1264 23.754 20.2503 23.7201 20.359 23.6558C20.4677 23.5916 20.5571 23.4993 20.6179 23.3887C20.8175 23.0257 21.2735 22.8932 21.6365 23.0928C21.9994 23.2924 22.1319 23.7484 21.9323 24.1114C21.7421 24.4574 21.4624 24.746 21.1225 24.947C20.7826 25.148 20.395 25.254 20.0001 25.254C19.6052 25.254 19.2176 25.148 18.8777 24.947C18.5378 24.746 18.2581 24.4574 18.0679 24.1114C17.8683 23.7484 18.0008 23.2924 18.3638 23.0928Z" fill="#0F172A"/>
<circle cx="22.5" cy="10.5" r="3.5" fill="#FF3636"/>
</g>
<defs>
<filter id="filter0_d_3225_42416" x="-8" y="-6.6" width="56" height="56" filterUnits="userSpaceOnUse" color-interpolation-filters="sRGB">
<feFlood flood-opacity="0" result="BackgroundImageFix"/>
<feColorMatrix in="SourceAlpha" type="matrix" values="0 0 0 0 0 0 0 0 0 0 0 0 0 0 0 0 0 0 127 0" result="hardAlpha"/>
<feMorphology radius="1" operator="erode" in="SourceAlpha" result="effect1_dropShadow_3225_42416"/>
<feOffset dy="4.4"/>
<feGaussianBlur stdDeviation="6"/>
<feColorMatrix type="matrix" values="0 0 0 0 0.870833 0 0 0 0 0.870833 0 0 0 0 0.870833 0 0 0 0.36 0"/>
<feBlend mode="normal" in2="BackgroundImageFix" result="effect1_dropShadow_3225_42416"/>
<feBlend mode="normal" in="SourceGraphic" in2="effect1_dropShadow_3225_42416" result="shape"/>
</filter>
</defs>
</svg>
