<svg width="18" height="18" viewBox="0 0 18 18" fill="none" xmlns="http://www.w3.org/2000/svg">
<path fill-rule="evenodd" clip-rule="evenodd" d="M9.00006 2.25C8.0055 2.25 7.05167 2.64509 6.34841 3.34835C5.64515 4.05161 5.25006 5.00544 5.25006 6C5.25006 8.73551 4.66286 10.549 4.03348 11.7029C3.97641 11.8075 3.91912 11.9065 3.86205 12H14.1381C14.081 11.9065 14.0237 11.8075 13.9666 11.7029C13.3373 10.549 12.7501 8.73551 12.7501 6C12.7501 5.00544 12.355 4.05161 11.6517 3.34835C10.9484 2.64509 9.99462 2.25 9.00006 2.25ZM16.1748 12.1319C16.1743 12.1315 16.1735 12.1309 16.1726 12.1303C16.1669 12.126 16.1535 12.1158 16.1335 12.0991C16.0936 12.0659 16.0273 12.0068 15.943 11.9178C15.7746 11.7401 15.5323 11.4408 15.2835 10.9846C14.7879 10.076 14.2501 8.51449 14.2501 6C14.2501 4.60761 13.6969 3.27226 12.7124 2.28769C11.7278 1.30312 10.3924 0.75 9.00006 0.75C7.60767 0.75 6.27231 1.30312 5.28775 2.28769C4.30318 3.27226 3.75006 4.60761 3.75006 6C3.75006 8.51449 3.21226 10.076 2.71664 10.9846C2.46779 11.4408 2.22548 11.7401 2.05716 11.9178C1.9728 12.0068 1.90651 12.0659 1.8666 12.0991C1.84663 12.1158 1.83324 12.126 1.82747 12.1303C1.82657 12.1309 1.82586 12.1315 1.82533 12.1319C1.55646 12.3165 1.43748 12.6544 1.53224 12.9673C1.62801 13.2837 1.91956 13.5 2.25006 13.5H15.7501C16.0806 13.5 16.3721 13.2837 16.4679 12.9673C16.5626 12.6544 16.4437 12.3165 16.1748 12.1319Z" fill="#0F172A"/>
<path fill-rule="evenodd" clip-rule="evenodd" d="M7.36378 15.0928C7.72675 14.8932 8.18277 15.0257 8.38233 15.3887C8.44316 15.4993 8.53258 15.5916 8.64125 15.6558C8.74993 15.7201 8.87386 15.754 9.00012 15.754C9.12637 15.754 9.2503 15.7201 9.35898 15.6558C9.46765 15.5916 9.55707 15.4993 9.6179 15.3887C9.81746 15.0257 10.2735 14.8932 10.6365 15.0928C10.9994 15.2924 11.1319 15.7484 10.9323 16.1114C10.7421 16.4574 10.4624 16.746 10.1225 16.947C9.78263 17.148 9.39499 17.254 9.00012 17.254C8.60524 17.254 8.2176 17.148 7.87771 16.947C7.53782 16.746 7.25815 16.4574 7.0679 16.1114C6.86834 15.7484 7.0008 15.2924 7.36378 15.0928Z" fill="#0F172A"/>
</svg>
