<svg width="18" height="18" viewBox="0 0 18 18" fill="none" xmlns="http://www.w3.org/2000/svg">
<path fill-rule="evenodd" clip-rule="evenodd" d="M8.46967 0.96967C8.76256 0.676777 9.23744 0.676777 9.53033 0.96967L12.5303 3.96967C12.8232 4.26256 12.8232 4.73744 12.5303 5.03033C12.2374 5.32322 11.7626 5.32322 11.4697 5.03033L9 2.56066L6.53033 5.03033C6.23744 5.32322 5.76256 5.32322 5.46967 5.03033C5.17678 4.73744 5.17678 4.26256 5.46967 3.96967L8.46967 0.96967Z" fill="#0F172A"/>
<path fill-rule="evenodd" clip-rule="evenodd" d="M9 0.75C9.41421 0.75 9.75 1.08579 9.75 1.5V9.22119C9.75478 9.7191 9.66035 10.213 9.47221 10.674C9.28353 11.1364 9.0044 11.5564 8.65121 11.9095L3.53033 17.0303C3.23744 17.3232 2.76256 17.3232 2.46967 17.0303C2.17678 16.7374 2.17678 16.2626 2.46967 15.9697L7.59067 10.8487L7.59079 10.8485C7.80271 10.6367 7.97018 10.3847 8.08339 10.1073C8.1966 9.82989 8.25326 9.53265 8.25004 9.23305C8.25001 9.23036 8.25 9.22768 8.25 9.225V1.5C8.25 1.08579 8.58579 0.75 9 0.75Z" fill="#0F172A"/>
<path fill-rule="evenodd" clip-rule="evenodd" d="M10.7197 12.2197C11.0126 11.9268 11.4874 11.9268 11.7803 12.2197L15.5303 15.9697C15.8232 16.2626 15.8232 16.7374 15.5303 17.0303C15.2374 17.3232 14.7626 17.3232 14.4697 17.0303L10.7197 13.2803C10.4268 12.9874 10.4268 12.5126 10.7197 12.2197Z" fill="#0F172A"/>
</svg>
