<svg width="16" height="16" viewBox="0 0 16 16" fill="none" xmlns="http://www.w3.org/2000/svg">
<path fill-rule="evenodd" clip-rule="evenodd" d="M4 8.66667C4 8.29848 4.29848 8 4.66667 8H7.33333C7.70152 8 8 8.29848 8 8.66667C8 9.03486 7.70152 9.33333 7.33333 9.33333H4.66667C4.29848 9.33333 4 9.03486 4 8.66667Z" fill="#0F172A"/>
<path fill-rule="evenodd" clip-rule="evenodd" d="M9.33325 5.99967C9.33325 5.63148 9.63173 5.33301 9.99992 5.33301H12.6666C13.0348 5.33301 13.3333 5.63148 13.3333 5.99967C13.3333 6.36786 13.0348 6.66634 12.6666 6.66634H9.99992C9.63173 6.66634 9.33325 6.36786 9.33325 5.99967Z" fill="#0F172A"/>
<path fill-rule="evenodd" clip-rule="evenodd" d="M1.99992 1.33301C2.36811 1.33301 2.66659 1.63148 2.66659 1.99967V12.6663C2.66659 12.8432 2.73682 13.0127 2.86185 13.1377C2.98687 13.2628 3.15644 13.333 3.33325 13.333H13.9999C14.3681 13.333 14.6666 13.6315 14.6666 13.9997C14.6666 14.3679 14.3681 14.6663 13.9999 14.6663H3.33325C2.80282 14.6663 2.29411 14.4556 1.91904 14.0806C1.54397 13.7055 1.33325 13.1968 1.33325 12.6663V1.99967C1.33325 1.63148 1.63173 1.33301 1.99992 1.33301Z" fill="#0F172A"/>
<path fill-rule="evenodd" clip-rule="evenodd" d="M10.6666 4.00033V10.667H11.9999V4.00033H10.6666ZM9.33325 4.00033C9.33325 3.26395 9.93021 2.66699 10.6666 2.66699H11.9999C12.7363 2.66699 13.3333 3.26395 13.3333 4.00033V10.667C13.3333 11.4034 12.7363 12.0003 11.9999 12.0003H10.6666C9.93021 12.0003 9.33325 11.4034 9.33325 10.667V4.00033Z" fill="#0F172A"/>
<path fill-rule="evenodd" clip-rule="evenodd" d="M5.33333 6.00033V10.667H6.66667V6.00033H5.33333ZM4 6.00033C4 5.26395 4.59695 4.66699 5.33333 4.66699H6.66667C7.40305 4.66699 8 5.26395 8 6.00033V10.667C8 11.4034 7.40305 12.0003 6.66667 12.0003H5.33333C4.59695 12.0003 4 11.4034 4 10.667V6.00033Z" fill="#0F172A"/>
<circle cx="12.5" cy="2.5" r="2.5" fill="#14B51D"/>
</svg>
