<svg width="56" height="56" viewBox="0 0 56 56" fill="none" xmlns="http://www.w3.org/2000/svg">
<mask id="path-1-inside-1_2517_1005" fill="white">
<path d="M0 28C0 12.536 12.536 0 28 0C43.464 0 56 12.536 56 28C56 43.464 43.464 56 28 56C12.536 56 0 43.464 0 28Z"/>
</mask>
<path d="M0 0H56H0ZM56 56H0H56ZM0 56V0V56ZM29 0C44.464 0 57 12.536 57 28C57 43.464 44.464 56 29 56H28C42.9117 56 55 43.464 55 28C55 12.536 42.9117 0 28 0H29Z" fill="#0D76E1" mask="url(#path-1-inside-1_2517_1005)"/>
<g clip-path="url(#clip0_2517_1005)">
<mask id="path-3-inside-2_2517_1005" fill="white">
<path d="M4 28C4 14.7452 14.7452 4 28 4C41.2548 4 52 14.7452 52 28C52 41.2548 41.2548 52 28 52C14.7452 52 4 41.2548 4 28Z"/>
</mask>
<path d="M4 28C4 14.7452 14.7452 4 28 4C41.2548 4 52 14.7452 52 28C52 41.2548 41.2548 52 28 52C14.7452 52 4 41.2548 4 28Z" fill="#0D76E1"/>
<g filter="url(#filter0_f_2517_1005)">
<circle cx="48.5" cy="11.5" r="11.5" fill="#63A9FF"/>
</g>
<g filter="url(#filter1_f_2517_1005)">
<circle cx="24.5" cy="55.5" r="11.5" fill="#63A9FF"/>
</g>
<path fill-rule="evenodd" clip-rule="evenodd" d="M27.9999 19.0048C27.4964 19.0048 27.0009 19.1315 26.5592 19.3734C26.1175 19.6152 25.7437 19.9644 25.4724 20.3887C25.2458 20.7431 24.8217 20.9178 24.4112 20.8258C23.9183 20.7153 23.4055 20.731 22.9203 20.8715C22.4352 21.012 21.9933 21.2728 21.6358 21.6295C21.2782 21.9863 21.0166 22.4276 20.875 22.9125C20.7335 23.3974 20.7167 23.9101 20.8262 24.4033C20.9176 24.8148 20.741 25.2395 20.3847 25.465C19.9572 25.7355 19.605 26.1098 19.361 26.5531C19.117 26.9963 18.989 27.494 18.989 28C18.989 28.5059 19.117 29.0037 19.361 29.4469C19.605 29.8901 19.9572 30.2644 20.3847 30.535C20.741 30.7604 20.9176 31.1851 20.8262 31.5967C20.7167 32.0898 20.7335 32.6026 20.875 33.0874C21.0166 33.5723 21.2782 34.0136 21.6358 34.3704C21.9933 34.7272 22.4352 34.9879 22.9203 35.1285C23.4055 35.269 23.9183 35.2847 24.4112 35.1742C24.8225 35.082 25.2475 35.2576 25.4737 35.6132C25.7446 36.0391 26.1186 36.3898 26.5611 36.6327C27.0036 36.8757 27.5002 37.003 28.0049 37.003C28.5097 37.003 29.0063 36.8757 29.4488 36.6327C29.8913 36.3898 30.2653 36.0391 30.5362 35.6132C30.762 35.2582 31.1859 35.0826 31.5967 35.1737C32.0898 35.2832 32.6025 35.2664 33.0874 35.1249C33.5723 34.9833 34.0136 34.7217 34.3704 34.3641C34.7272 34.0066 34.9879 33.5648 35.1284 33.0796C35.2689 32.5944 35.2847 32.0816 35.1742 31.5887C35.0821 31.1783 35.2568 30.7541 35.6113 30.5275C36.0355 30.2562 36.3847 29.8825 36.6265 29.4408C36.8684 28.9991 36.9952 28.5036 36.9952 28C36.9952 27.4964 36.8684 27.0009 36.6265 26.5592C36.3847 26.1175 36.0355 25.7438 35.6113 25.4725C35.2567 25.2457 35.082 24.8213 35.1743 24.4106C35.2853 23.917 35.2696 23.4033 35.1288 22.9174C34.9879 22.4314 34.7264 21.989 34.3687 21.6312C34.0109 21.2735 33.5685 21.012 33.0826 20.8712C32.5966 20.7303 32.0829 20.7146 31.5893 20.8256C31.1787 20.9179 30.7542 20.7433 30.5274 20.3887C30.2562 19.9644 29.8824 19.6152 29.4407 19.3734C28.999 19.1315 28.5035 19.0048 27.9999 19.0048ZM25.5986 17.6191C26.3348 17.216 27.1606 17.0048 27.9999 17.0048C28.8393 17.0048 29.6651 17.216 30.4013 17.6191C30.9404 17.9143 31.4187 18.3054 31.8138 18.7714C32.4262 18.7181 33.0452 18.778 33.6393 18.9502C34.4493 19.185 35.1866 19.6208 35.7829 20.217C36.3792 20.8133 36.8149 21.5507 37.0497 22.3606C37.2219 22.9547 37.2818 23.5737 37.2285 24.1861C37.6945 24.5812 38.0856 25.0595 38.3808 25.5987C38.7839 26.3348 38.9952 27.1607 38.9952 28C38.9952 28.8393 38.7839 29.6651 38.3808 30.4013C38.0855 30.9405 37.6943 31.419 37.2282 31.8141C37.2811 32.4253 37.2212 33.043 37.0495 33.636C36.8153 34.4446 36.3807 35.181 35.7861 35.7769C35.1914 36.3728 34.4559 36.8089 33.6478 37.0448C33.0553 37.2177 32.4377 37.2789 31.8264 37.2273C31.4312 37.6958 30.9519 38.0891 30.4114 38.3859C29.6739 38.7908 28.8462 39.003 28.0049 39.003C27.1637 39.003 26.336 38.7908 25.5985 38.3859C25.0584 38.0893 24.5794 37.6964 24.1843 37.2284C23.5736 37.281 22.9564 37.2211 22.364 37.0495C21.5554 36.8153 20.819 36.3808 20.2231 35.7861C19.6271 35.1914 19.191 34.456 18.9552 33.6478C18.7824 33.0558 18.7211 32.4388 18.7725 31.828C18.3021 31.4328 17.9071 30.953 17.609 30.4115C17.2023 29.6728 16.989 28.8432 16.989 28C16.989 27.1567 17.2023 26.3272 17.609 25.5885C17.9071 25.0469 18.3021 24.5672 18.7725 24.172C18.7211 23.5612 18.7824 22.9442 18.9552 22.3521C19.191 21.544 19.6271 20.8085 20.2231 20.2139C20.819 19.6192 21.5554 19.1846 22.364 18.9504C22.9569 18.7787 23.5746 18.7188 24.1859 18.7717C24.5809 18.3056 25.0594 17.9144 25.5986 17.6191Z" fill="white"/>
<path fill-rule="evenodd" clip-rule="evenodd" d="M23.8787 23.8787C24.4413 23.3161 25.2043 23 26 23H32C32.5523 23 33 23.4477 33 24C33 24.5523 32.5523 25 32 25H26C25.7348 25 25.4804 25.1054 25.2929 25.2929C25.1054 25.4804 25 25.7348 25 26C25 26.2652 25.1054 26.5196 25.2929 26.7071C25.4804 26.8946 25.7348 27 26 27H30C30.7956 27 31.5587 27.3161 32.1213 27.8787C32.6839 28.4413 33 29.2043 33 30C33 30.7956 32.6839 31.5587 32.1213 32.1213C31.5587 32.6839 30.7956 33 30 33H24C23.4477 33 23 32.5523 23 32C23 31.4477 23.4477 31 24 31H30C30.2652 31 30.5196 30.8946 30.7071 30.7071C30.8946 30.5196 31 30.2652 31 30C31 29.7348 30.8946 29.4804 30.7071 29.2929C30.5196 29.1054 30.2652 29 30 29H26C25.2043 29 24.4413 28.6839 23.8787 28.1213C23.3161 27.5587 23 26.7957 23 26C23 25.2043 23.3161 24.4413 23.8787 23.8787Z" fill="white"/>
<path fill-rule="evenodd" clip-rule="evenodd" d="M28 21C28.5523 21 29 21.4477 29 22V34C29 34.5523 28.5523 35 28 35C27.4477 35 27 34.5523 27 34V22C27 21.4477 27.4477 21 28 21Z" fill="white"/>
</g>
<path d="M4 27.5C4 13.969 14.969 3 28.5 3C42.031 3 53 13.969 53 27.5L51 28C51 15.2975 40.7025 5 28 5C14.7452 5 4 15.2975 4 28V27.5ZM52 52H4H52ZM4 52V4V52ZM28.5 3C42.031 3 53 13.969 53 27.5C53 41.031 42.031 52 28.5 52H28C40.7025 52 51 41.2548 51 28C51 15.2975 40.7025 5 28 5L28.5 3Z" fill="#0D76E1" mask="url(#path-3-inside-2_2517_1005)"/>
<defs>
<filter id="filter0_f_2517_1005" x="23" y="-14" width="51" height="51" filterUnits="userSpaceOnUse" color-interpolation-filters="sRGB">
<feFlood flood-opacity="0" result="BackgroundImageFix"/>
<feBlend mode="normal" in="SourceGraphic" in2="BackgroundImageFix" result="shape"/>
<feGaussianBlur stdDeviation="7" result="effect1_foregroundBlur_2517_1005"/>
</filter>
<filter id="filter1_f_2517_1005" x="-1" y="30" width="51" height="51" filterUnits="userSpaceOnUse" color-interpolation-filters="sRGB">
<feFlood flood-opacity="0" result="BackgroundImageFix"/>
<feBlend mode="normal" in="SourceGraphic" in2="BackgroundImageFix" result="shape"/>
<feGaussianBlur stdDeviation="7" result="effect1_foregroundBlur_2517_1005"/>
</filter>
<clipPath id="clip0_2517_1005">
<path d="M4 28C4 14.7452 14.7452 4 28 4C41.2548 4 52 14.7452 52 28C52 41.2548 41.2548 52 28 52C14.7452 52 4 41.2548 4 28Z" fill="white"/>
</clipPath>
</defs>
</svg>
