<svg width="16" height="16" viewBox="0 0 16 16" fill="none" xmlns="http://www.w3.org/2000/svg">
<path fill-rule="evenodd" clip-rule="evenodd" d="M7.33334 2.66671C4.75601 2.66671 2.66667 4.75605 2.66667 7.33337C2.66667 9.9107 4.75601 12 7.33334 12C9.91067 12 12 9.9107 12 7.33337C12 4.75605 9.91067 2.66671 7.33334 2.66671ZM1.33334 7.33337C1.33334 4.01967 4.01963 1.33337 7.33334 1.33337C10.647 1.33337 13.3333 4.01967 13.3333 7.33337C13.3333 10.6471 10.647 13.3334 7.33334 13.3334C4.01963 13.3334 1.33334 10.6471 1.33334 7.33337Z" fill="#0F172A"/>
<path fill-rule="evenodd" clip-rule="evenodd" d="M10.6619 10.6619C10.9223 10.4016 11.3444 10.4016 11.6047 10.6619L14.4714 13.5286C14.7317 13.789 14.7317 14.2111 14.4714 14.4714C14.211 14.7318 13.7889 14.7318 13.5286 14.4714L10.6619 11.6047C10.4016 11.3444 10.4016 10.9223 10.6619 10.6619Z" fill="#0F172A"/>
</svg>
