<svg width="18" height="18" viewBox="0 0 18 18" fill="none" xmlns="http://www.w3.org/2000/svg">
<path fill-rule="evenodd" clip-rule="evenodd" d="M4.22703 4.22703C5.4929 2.96116 7.20979 2.25 9 2.25C10.7902 2.25 12.5071 2.96116 13.773 4.22703C15.0388 5.4929 15.75 7.20979 15.75 9C15.75 10.7902 15.0388 12.5071 13.773 13.773C12.5071 15.0388 10.7902 15.75 9 15.75C7.20979 15.75 5.4929 15.0388 4.22703 13.773C2.96116 12.5071 2.25 10.7902 2.25 9C2.25 7.20979 2.96116 5.4929 4.22703 4.22703ZM9 3.75C7.60761 3.75 6.27226 4.30312 5.28769 5.28769C4.30312 6.27226 3.75 7.60761 3.75 9C3.75 10.3924 4.30312 11.7277 5.28769 12.7123C6.27226 13.6969 7.60761 14.25 9 14.25C10.3924 14.25 11.7277 13.6969 12.7123 12.7123C13.6969 11.7277 14.25 10.3924 14.25 9C14.25 7.60761 13.6969 6.27226 12.7123 5.28769C11.7277 4.30312 10.3924 3.75 9 3.75Z" fill="#0F172A"/>
<path fill-rule="evenodd" clip-rule="evenodd" d="M7.40901 7.40901C7.83097 6.98705 8.40326 6.75 9 6.75C9.59674 6.75 10.169 6.98705 10.591 7.40901C11.0129 7.83097 11.25 8.40326 11.25 9C11.25 9.59674 11.0129 10.169 10.591 10.591C10.169 11.0129 9.59674 11.25 9 11.25C8.40326 11.25 7.83097 11.0129 7.40901 10.591C6.98705 10.169 6.75 9.59674 6.75 9C6.75 8.40326 6.98705 7.83097 7.40901 7.40901ZM9 8.25C8.80109 8.25 8.61032 8.32902 8.46967 8.46967C8.32902 8.61032 8.25 8.80109 8.25 9C8.25 9.19891 8.32902 9.38968 8.46967 9.53033C8.61032 9.67098 8.80109 9.75 9 9.75C9.19891 9.75 9.38968 9.67098 9.53033 9.53033C9.67098 9.38968 9.75 9.19891 9.75 9C9.75 8.80109 9.67098 8.61032 9.53033 8.46967C9.38968 8.32902 9.19891 8.25 9 8.25Z" fill="#0F172A"/>
<path fill-rule="evenodd" clip-rule="evenodd" d="M9 0.75C9.41421 0.75 9.75 1.08579 9.75 1.5V3C9.75 3.41421 9.41421 3.75 9 3.75C8.58579 3.75 8.25 3.41421 8.25 3V1.5C8.25 1.08579 8.58579 0.75 9 0.75Z" fill="#0F172A"/>
<path fill-rule="evenodd" clip-rule="evenodd" d="M9 14.25C9.41421 14.25 9.75 14.5858 9.75 15V16.5C9.75 16.9142 9.41421 17.25 9 17.25C8.58579 17.25 8.25 16.9142 8.25 16.5V15C8.25 14.5858 8.58579 14.25 9 14.25Z" fill="#0F172A"/>
<path fill-rule="evenodd" clip-rule="evenodd" d="M11.6247 13.5482C11.9833 13.3409 12.442 13.4636 12.6493 13.8222L13.3993 15.1197C13.6066 15.4783 13.4839 15.937 13.1253 16.1443C12.7667 16.3516 12.308 16.229 12.1007 15.8703L11.3507 14.5728C11.1434 14.2142 11.2661 13.7555 11.6247 13.5482Z" fill="#0F172A"/>
<path fill-rule="evenodd" clip-rule="evenodd" d="M4.87508 1.85545C5.23382 1.64838 5.6925 1.77134 5.89956 2.13008L8.89956 7.32758C9.10663 7.68632 8.98367 8.145 8.62493 8.35207C8.26619 8.55914 7.80751 8.43618 7.60044 8.07744L4.60044 2.87994C4.39338 2.52119 4.51633 2.06251 4.87508 1.85545Z" fill="#0F172A"/>
<path fill-rule="evenodd" clip-rule="evenodd" d="M13.5482 11.6247C13.7555 11.2661 14.2142 11.1434 14.5728 11.3507L15.8703 12.1007C16.229 12.308 16.3516 12.7667 16.1443 13.1253C15.937 13.4839 15.4783 13.6066 15.1197 13.3993L13.8222 12.6493C13.4636 12.442 13.3409 11.9833 13.5482 11.6247Z" fill="#0F172A"/>
<path fill-rule="evenodd" clip-rule="evenodd" d="M1.85568 4.87467C2.06297 4.51606 2.52173 4.39339 2.88034 4.60068L4.17784 5.35068C4.53645 5.55797 4.65913 6.01672 4.45183 6.37534C4.24454 6.73395 3.78579 6.85662 3.42717 6.64933L2.12967 5.89933C1.77106 5.69204 1.64839 5.23328 1.85568 4.87467Z" fill="#0F172A"/>
<path fill-rule="evenodd" clip-rule="evenodd" d="M9.75 9C9.75 8.58579 10.0858 8.25 10.5 8.25H16.5C16.9142 8.25 17.25 8.58579 17.25 9C17.25 9.41421 16.9142 9.75 16.5 9.75H10.5C10.0858 9.75 9.75 9.41421 9.75 9Z" fill="#0F172A"/>
<path fill-rule="evenodd" clip-rule="evenodd" d="M0.75 9C0.75 8.58579 1.08579 8.25 1.5 8.25H3C3.41421 8.25 3.75 8.58579 3.75 9C3.75 9.41421 3.41421 9.75 3 9.75H1.5C1.08579 9.75 0.75 9.41421 0.75 9Z" fill="#0F172A"/>
<path fill-rule="evenodd" clip-rule="evenodd" d="M16.1443 4.87467C16.3516 5.23328 16.229 5.69204 15.8703 5.89933L14.5728 6.64933C14.2142 6.85662 13.7555 6.73395 13.5482 6.37534C13.3409 6.01672 13.4636 5.55797 13.8222 5.35068L15.1197 4.60068C15.4783 4.39339 15.937 4.51606 16.1443 4.87467Z" fill="#0F172A"/>
<path fill-rule="evenodd" clip-rule="evenodd" d="M4.45183 11.6247C4.65913 11.9833 4.53645 12.442 4.17784 12.6493L2.88034 13.3993C2.52173 13.6066 2.06297 13.4839 1.85568 13.1253C1.64839 12.7667 1.77106 12.308 2.12967 12.1007L3.42717 11.3507C3.78579 11.1434 4.24454 11.2661 4.45183 11.6247Z" fill="#0F172A"/>
<path fill-rule="evenodd" clip-rule="evenodd" d="M13.1253 1.85568C13.4839 2.06297 13.6066 2.52173 13.3993 2.88034L12.6493 4.17784C12.442 4.53645 11.9833 4.65913 11.6247 4.45183C11.2661 4.24454 11.1434 3.78579 11.3507 3.42717L12.1007 2.12967C12.308 1.77106 12.7667 1.64839 13.1253 1.85568Z" fill="#0F172A"/>
<path fill-rule="evenodd" clip-rule="evenodd" d="M8.62493 9.64793C8.98367 9.85499 9.10663 10.3137 8.89956 10.6724L5.89956 15.8699C5.6925 16.2287 5.23382 16.3516 4.87508 16.1446C4.51633 15.9375 4.39338 15.4788 4.60044 15.1201L7.60044 9.92256C7.80751 9.56382 8.26619 9.44086 8.62493 9.64793Z" fill="#0F172A"/>
</svg>
