<svg width="16" height="16" viewBox="0 0 16 16" fill="none" xmlns="http://www.w3.org/2000/svg">
<path fill-rule="evenodd" clip-rule="evenodd" d="M5.59311 2.74482C5.49469 2.69241 5.3847 2.66552 5.27321 2.66662C5.27103 2.66664 5.26885 2.66665 5.26667 2.66665H2.66667C2.48986 2.66665 2.32029 2.73689 2.19527 2.86191C2.07024 2.98694 2.00001 3.1565 2.00001 3.33332V12C2.00001 12.1768 2.07024 12.3464 2.19527 12.4714C2.32029 12.5964 2.48986 12.6666 2.66667 12.6666H6.00001C6.36819 12.6666 6.66667 12.9651 6.66667 13.3333C6.66667 13.7015 6.36819 14 6.00001 14H2.66667C2.13624 14 1.62753 13.7893 1.25246 13.4142C0.877386 13.0391 0.666672 12.5304 0.666672 12V3.33332C0.666672 2.80288 0.877385 2.29418 1.25246 1.9191C1.62753 1.54403 2.13624 1.33332 2.66667 1.33332H5.26373C5.59699 1.33065 5.92565 1.4113 6.21984 1.56797C6.51385 1.72454 6.76408 1.95206 6.94783 2.22985L7.4859 3.027C7.48732 3.0291 7.48872 3.0312 7.49011 3.03332C7.55082 3.12549 7.63346 3.20116 7.73062 3.25352C7.82774 3.30586 7.93634 3.33328 8.04667 3.33332C8.04671 3.33332 8.04674 3.33332 8.04678 3.33332H13.3333C13.8638 3.33332 14.3725 3.54403 14.7476 3.9191C15.1226 4.29417 15.3333 4.80288 15.3333 5.33332V5.66665C15.3333 6.03484 15.0349 6.33332 14.6667 6.33332C14.2985 6.33332 14 6.03484 14 5.66665V5.33332C14 5.15651 13.9298 4.98694 13.8047 4.86191C13.6797 4.73689 13.5101 4.66665 13.3333 4.66665H8.04667V3.99875L8.04656 4.66665C7.71545 4.66659 7.38954 4.58433 7.09806 4.42725C6.80782 4.27083 6.56076 4.04509 6.37887 3.77014L5.84077 2.97296C5.83935 2.97086 5.83794 2.96874 5.83654 2.96662C5.77522 2.87349 5.69152 2.79723 5.59311 2.74482Z" fill="#0F172A"/>
<path fill-rule="evenodd" clip-rule="evenodd" d="M7.99999 6C8.36818 6 8.66666 6.29848 8.66666 6.66667V8.66667H10.6667C11.0349 8.66667 11.3333 8.96514 11.3333 9.33333C11.3333 9.70152 11.0349 10 10.6667 10H7.99999C7.63181 10 7.33333 9.70152 7.33333 9.33333V6.66667C7.33333 6.29848 7.63181 6 7.99999 6Z" fill="#0F172A"/>
<path fill-rule="evenodd" clip-rule="evenodd" d="M11.8246 8.04563C11.4072 7.96738 10.9772 7.98992 10.5703 8.11139C10.1677 8.23159 9.7992 8.44522 9.49488 8.7348L8.48179 9.79408C8.22731 10.0602 7.8053 10.0696 7.53921 9.8151C7.27313 9.56061 7.26372 9.13861 7.5182 8.87252L8.54154 7.80252C8.54801 7.79576 8.55462 7.78913 8.56137 7.78264C9.0206 7.34128 9.57859 7.01597 10.1889 6.83377C10.7992 6.65157 11.4442 6.61776 12.0703 6.73514C12.6963 6.85252 13.2853 7.1177 13.7881 7.50862C14.291 7.89954 14.6932 8.4049 14.9614 8.98264C15.1164 9.31661 14.9713 9.713 14.6373 9.86801C14.3034 10.023 13.907 9.87794 13.752 9.54397C13.5732 9.15881 13.305 8.8219 12.9698 8.56129C12.6345 8.30068 12.2419 8.12389 11.8246 8.04563Z" fill="#0F172A"/>
<path fill-rule="evenodd" clip-rule="evenodd" d="M11.3333 12C11.3333 11.6319 11.6318 11.3334 12 11.3334H14.6667C15.0349 11.3334 15.3333 11.6319 15.3333 12V14.6667C15.3333 15.0349 15.0349 15.3334 14.6667 15.3334C14.2985 15.3334 14 15.0349 14 14.6667V12.6667H12C11.6318 12.6667 11.3333 12.3682 11.3333 12Z" fill="#0F172A"/>
<path fill-rule="evenodd" clip-rule="evenodd" d="M15.1274 11.5182C15.3935 11.7727 15.4029 12.1947 15.1485 12.4608L14.1251 13.5308C14.1187 13.5376 14.112 13.5442 14.1053 13.5507C13.6461 13.9921 13.0881 14.3174 12.4777 14.4996C11.8674 14.6818 11.2224 14.7156 10.5964 14.5982C9.97036 14.4808 9.38141 14.2156 8.87855 13.8247C8.37568 13.4338 7.97344 12.9284 7.70529 12.3507C7.55028 12.0167 7.69536 11.6203 8.02934 11.4653C8.36331 11.3103 8.7597 11.4554 8.91471 11.7894C9.09347 12.1745 9.36163 12.5114 9.69688 12.7721C10.0321 13.0327 10.4248 13.2095 10.8421 13.2877C11.2595 13.366 11.6895 13.3434 12.0963 13.222C12.499 13.1018 12.8675 12.8881 13.1718 12.5985L14.1849 11.5393C14.4394 11.2732 14.8614 11.2638 15.1274 11.5182Z" fill="#0F172A"/>
</svg>
