<svg width="16" height="16" viewBox="0 0 16 16" fill="none" xmlns="http://www.w3.org/2000/svg">
<path fill-rule="evenodd" clip-rule="evenodd" d="M2.66666 11.3333C2.48985 11.3333 2.32028 11.4036 2.19525 11.5286C2.07023 11.6536 1.99999 11.8232 1.99999 12V12.6667L14 12.6667V12C14 11.8232 13.9298 11.6536 13.8047 11.5286C13.6797 11.4036 13.5101 11.3333 13.3333 11.3333H2.66666ZM1.25244 10.5858C1.62752 10.2107 2.13622 10 2.66666 10H13.3333C13.8638 10 14.3725 10.2107 14.7475 10.5858C15.1226 10.9609 15.3333 11.4696 15.3333 12V12.6667C15.3333 13.0203 15.1929 13.3594 14.9428 13.6095C14.6927 13.8595 14.3536 14 14 14H1.99999C1.64637 14 1.30723 13.8595 1.05718 13.6095C0.807132 13.3594 0.666656 13.0203 0.666656 12.6667V12C0.666656 11.4696 0.87737 10.9609 1.25244 10.5858Z" fill="#0F172A"/>
<path fill-rule="evenodd" clip-rule="evenodd" d="M3.75736 6.42398C4.88258 5.29877 6.4087 4.66663 8 4.66663C9.5913 4.66663 11.1174 5.29877 12.2426 6.42398C13.3679 7.5492 14 9.07533 14 10.6666C14 11.0348 13.7015 11.3333 13.3333 11.3333C12.9651 11.3333 12.6667 11.0348 12.6667 10.6666C12.6667 9.42895 12.175 8.24196 11.2998 7.36679C10.4247 6.49162 9.23768 5.99996 8 5.99996C6.76232 5.99996 5.57534 6.49162 4.70017 7.36679C3.825 8.24196 3.33333 9.42895 3.33333 10.6666C3.33333 11.0348 3.03486 11.3333 2.66667 11.3333C2.29848 11.3333 2 11.0348 2 10.6666C2 9.07533 2.63214 7.5492 3.75736 6.42398Z" fill="#0F172A"/>
<path fill-rule="evenodd" clip-rule="evenodd" d="M8.00001 2C8.3682 2 8.66668 2.29848 8.66668 2.66667V5.33333C8.66668 5.70152 8.3682 6 8.00001 6C7.63182 6 7.33334 5.70152 7.33334 5.33333V2.66667C7.33334 2.29848 7.63182 2 8.00001 2Z" fill="#0F172A"/>
<path fill-rule="evenodd" clip-rule="evenodd" d="M6 2.66667C6 2.29848 6.29848 2 6.66667 2H9.33333C9.70152 2 10 2.29848 10 2.66667C10 3.03486 9.70152 3.33333 9.33333 3.33333H6.66667C6.29848 3.33333 6 3.03486 6 2.66667Z" fill="#0F172A"/>
</svg>
