<svg width="14" height="14" viewBox="0 0 14 14" fill="none" xmlns="http://www.w3.org/2000/svg">
<path fill-rule="evenodd" clip-rule="evenodd" d="M3.79167 1.74999C3.5596 1.74999 3.33704 1.84218 3.17295 2.00628C3.00885 2.17037 2.91667 2.39293 2.91667 2.62499V9.53033C3.18758 9.40183 3.48609 9.33333 3.79167 9.33333H11.0833V1.74999H3.79167ZM12.25 1.74999C12.25 1.44058 12.1271 1.14383 11.9083 0.925037C11.6895 0.706244 11.3928 0.583328 11.0833 0.583328H3.79167C3.25018 0.583328 2.73088 0.798432 2.34799 1.18132C1.9651 1.56421 1.75 2.08351 1.75 2.62499V11.375C1.75 11.9165 1.9651 12.4358 2.34799 12.8187C2.73088 13.2016 3.25018 13.4167 3.79167 13.4167H11.0833C11.3928 13.4167 11.6895 13.2937 11.9083 13.075C12.1271 12.8562 12.25 12.5594 12.25 12.25V1.74999ZM11.0833 10.5H3.79167C3.5596 10.5 3.33704 10.5922 3.17295 10.7563C3.00885 10.9204 2.91667 11.1429 2.91667 11.375C2.91667 11.6071 3.00885 11.8296 3.17295 11.9937C3.33704 12.1578 3.5596 12.25 3.79167 12.25H11.0833V10.5Z" fill="#0F172A"/>
<path fill-rule="evenodd" clip-rule="evenodd" d="M4.08331 6.41666C4.08331 6.0945 4.34448 5.83333 4.66665 5.83333H9.33331C9.65548 5.83333 9.91665 6.0945 9.91665 6.41666C9.91665 6.73883 9.65548 6.99999 9.33331 6.99999H4.66665C4.34448 6.99999 4.08331 6.73883 4.08331 6.41666Z" fill="#0F172A"/>
<path fill-rule="evenodd" clip-rule="evenodd" d="M4.08331 4.08333C4.08331 3.76117 4.34448 3.5 4.66665 3.5H8.16665C8.48881 3.5 8.74998 3.76117 8.74998 4.08333C8.74998 4.4055 8.48881 4.66667 8.16665 4.66667H4.66665C4.34448 4.66667 4.08331 4.4055 4.08331 4.08333Z" fill="#0F172A"/>
</svg>
