<svg width="99" height="33" viewBox="0 0 99 33" fill="none" xmlns="http://www.w3.org/2000/svg">
<rect width="99" height="33" rx="6" fill="#0D76E1"/>
<path fill-rule="evenodd" clip-rule="evenodd" d="M18.5548 10.7925C18.6897 10.7128 18.8434 10.6708 19 10.6708C19.1566 10.6708 19.3103 10.7128 19.4452 10.7925C19.58 10.8722 19.691 10.9866 19.7665 11.1238C19.7682 11.1269 19.7699 11.1301 19.7716 11.1332L21.4902 14.3958L23.9772 12.2653C23.981 12.262 23.9848 12.2589 23.9887 12.2557C24.1324 12.1389 24.3094 12.0706 24.4944 12.0608C24.6793 12.0509 24.8626 12.1001 25.0178 12.201C25.1731 12.302 25.2923 12.4496 25.3583 12.6227C25.4243 12.7957 25.4337 12.9852 25.3852 13.164C25.3849 13.1648 25.3847 13.1657 25.3845 13.1665L23.7314 19.143C23.6639 19.3876 23.5185 19.6035 23.3172 19.7581C23.116 19.9126 22.8698 19.9973 22.6161 19.9993C22.6145 19.9993 22.613 19.9994 22.6114 19.9994H15.3892C15.3878 19.9994 15.3864 19.9993 15.3851 19.9993C15.1311 19.9976 14.8847 19.913 14.6832 19.7584C14.4818 19.604 14.3363 19.388 14.2687 19.1433C14.2687 19.1433 14.2687 19.1432 14.2686 19.1432C14.2686 19.1431 14.2686 19.1431 14.2686 19.143L12.6161 13.1671C12.6159 13.1662 12.6156 13.1654 12.6154 13.1646C12.5668 12.9858 12.5762 12.7963 12.6423 12.6233C12.7083 12.4502 12.8275 12.3026 12.9827 12.2016C13.138 12.1006 13.3213 12.0515 13.5062 12.0614C13.6912 12.0712 13.8682 12.1394 14.0119 12.2563C14.0158 12.2595 14.0196 12.2626 14.0234 12.2659L16.5098 14.3964L18.2284 11.1333C18.2301 11.1301 18.2318 11.1269 18.2335 11.1238C18.309 10.9866 18.42 10.8722 18.5548 10.7925ZM19 12.1717L20.4614 14.946C20.4625 14.9481 20.4636 14.9502 20.4648 14.9523C20.5469 15.1037 20.6615 15.235 20.8004 15.3368C20.9393 15.4387 21.099 15.5085 21.2681 15.5413C21.4372 15.5741 21.6115 15.569 21.7783 15.5265C21.9452 15.4839 22.1007 15.405 22.2334 15.2953C22.2361 15.2931 22.2387 15.2908 22.2413 15.2886L24.0049 13.7778L22.6068 18.8327H15.3932L13.9956 13.7785L15.7586 15.2891C15.7612 15.2914 15.7639 15.2936 15.7666 15.2958C15.8993 15.4056 16.0547 15.4845 16.2216 15.5271C16.3885 15.5696 16.5628 15.5746 16.7319 15.5419C16.901 15.5091 17.0607 15.4392 17.1996 15.3374C17.3385 15.2356 17.4531 15.1042 17.5352 14.9528C17.5364 14.9507 17.5375 14.9486 17.5386 14.9465L19 12.1717Z" fill="white"/>
<path fill-rule="evenodd" clip-rule="evenodd" d="M14.3333 21.75C14.3333 21.4278 14.5945 21.1666 14.9167 21.1666H23.0833C23.4055 21.1666 23.6667 21.4278 23.6667 21.75C23.6667 22.0721 23.4055 22.3333 23.0833 22.3333H14.9167C14.5945 22.3333 14.3333 22.0721 14.3333 21.75Z" fill="white"/>
<path d="M34.942 22.14C33.654 22.14 32.6647 21.762 31.974 21.006C31.2833 20.25 30.938 19.172 30.938 17.772V11.92H32.422V17.94C32.422 18.9013 32.6413 19.634 33.08 20.138C33.5187 20.6327 34.1393 20.88 34.942 20.88C35.7633 20.88 36.3933 20.6327 36.832 20.138C37.2707 19.6433 37.49 18.9107 37.49 17.94V11.92H38.974V17.8C38.974 19.1813 38.624 20.25 37.924 21.006C37.2333 21.762 36.2393 22.14 34.942 22.14ZM44.7421 22.126C44.0701 22.126 43.5101 21.9673 43.0621 21.65C42.6234 21.3233 42.3341 20.8707 42.1941 20.292L42.3901 20.264V24.87H40.9341V14.86H42.3201V16.498L42.1801 16.456C42.3294 15.9147 42.6468 15.49 43.1321 15.182C43.6174 14.874 44.1868 14.72 44.8401 14.72C45.4841 14.72 46.0394 14.874 46.5061 15.182C46.9821 15.49 47.3461 15.9193 47.5981 16.47C47.8594 17.0207 47.9901 17.6647 47.9901 18.402C47.9901 19.1487 47.8548 19.802 47.5841 20.362C47.3134 20.922 46.9354 21.356 46.4501 21.664C45.9648 21.972 45.3954 22.126 44.7421 22.126ZM44.4341 20.922C45.0688 20.922 45.5728 20.698 45.9461 20.25C46.3194 19.802 46.5061 19.186 46.5061 18.402C46.5061 17.6273 46.3194 17.0253 45.9461 16.596C45.5728 16.1573 45.0641 15.938 44.4201 15.938C43.7854 15.938 43.2768 16.162 42.8941 16.61C42.5208 17.0487 42.3341 17.66 42.3341 18.444C42.3341 19.2093 42.5208 19.816 42.8941 20.264C43.2768 20.7027 43.7901 20.922 44.4341 20.922ZM52.5434 25.01C51.6474 25.01 50.9054 24.8047 50.3174 24.394C49.7387 23.9927 49.3887 23.456 49.2674 22.784H50.6394C50.7327 23.092 50.9381 23.3347 51.2554 23.512C51.5821 23.6893 52.0161 23.778 52.5574 23.778C53.2574 23.778 53.7801 23.6053 54.1254 23.26C54.4707 22.9147 54.6434 22.4013 54.6434 21.72V20.18L54.7694 20.208C54.6294 20.7493 54.3261 21.1787 53.8594 21.496C53.3927 21.804 52.8327 21.958 52.1794 21.958C51.5541 21.958 51.0034 21.8087 50.5274 21.51C50.0514 21.2113 49.6827 20.796 49.4214 20.264C49.1601 19.7227 49.0294 19.0927 49.0294 18.374C49.0294 17.646 49.1647 17.0067 49.4354 16.456C49.7061 15.9053 50.0841 15.4807 50.5694 15.182C51.0641 14.8833 51.6381 14.734 52.2914 14.734C52.9634 14.734 53.5187 14.8973 53.9574 15.224C54.4054 15.5413 54.6901 15.994 54.8114 16.582L54.6994 16.596V14.86H56.0854V21.706C56.0854 22.7327 55.7681 23.54 55.1334 24.128C54.5081 24.716 53.6447 25.01 52.5434 25.01ZM52.6134 20.782C53.2387 20.782 53.7381 20.5627 54.1114 20.124C54.4941 19.6853 54.6854 19.0833 54.6854 18.318C54.6854 17.5713 54.4941 16.9833 54.1114 16.554C53.7381 16.1247 53.2341 15.91 52.5994 15.91C51.9647 15.91 51.4607 16.1293 51.0874 16.568C50.7141 16.9973 50.5274 17.5947 50.5274 18.36C50.5274 19.1067 50.7141 19.6993 51.0874 20.138C51.4701 20.5673 51.9787 20.782 52.6134 20.782ZM58.1333 22V14.86H59.5193V16.638H59.5893V22H58.1333ZM59.5893 18.276L59.4073 16.582C59.5753 15.9753 59.8647 15.5133 60.2753 15.196C60.686 14.8787 61.176 14.72 61.7453 14.72C61.96 14.72 62.1093 14.7387 62.1933 14.776V16.148C62.1467 16.1293 62.0813 16.12 61.9973 16.12C61.9133 16.1107 61.8107 16.106 61.6893 16.106C60.9893 16.106 60.462 16.288 60.1073 16.652C59.762 17.016 59.5893 17.5573 59.5893 18.276ZM67.698 22C67.6513 21.8227 67.6186 21.6267 67.6 21.412C67.5906 21.1973 67.586 20.936 67.586 20.628H67.516V17.226C67.516 16.7687 67.3993 16.428 67.166 16.204C66.942 15.9707 66.5826 15.854 66.088 15.854C65.612 15.854 65.2293 15.9473 64.94 16.134C64.66 16.3207 64.4966 16.5867 64.45 16.932H63.064C63.1293 16.26 63.4326 15.7233 63.974 15.322C64.5153 14.9207 65.2386 14.72 66.144 14.72C67.0773 14.72 67.7773 14.9393 68.244 15.378C68.7106 15.8073 68.944 16.442 68.944 17.282V20.628C68.944 20.8427 68.958 21.062 68.986 21.286C69.014 21.51 69.056 21.748 69.112 22H67.698ZM65.234 22.14C64.506 22.14 63.9273 21.9627 63.498 21.608C63.0686 21.244 62.854 20.754 62.854 20.138C62.854 19.5033 63.078 19.004 63.526 18.64C63.9833 18.2667 64.6366 18.0147 65.486 17.884L67.838 17.506V18.528L65.71 18.864C65.234 18.9387 64.8746 19.0647 64.632 19.242C64.3986 19.4193 64.282 19.676 64.282 20.012C64.282 20.3387 64.3893 20.586 64.604 20.754C64.828 20.9127 65.15 20.992 65.57 20.992C66.13 20.992 66.592 20.8567 66.956 20.586C67.3293 20.3153 67.516 19.9747 67.516 19.564L67.698 20.6C67.53 21.0947 67.2313 21.4773 66.802 21.748C66.3726 22.0093 65.85 22.14 65.234 22.14ZM76.0138 22V20.362L76.1538 20.404C76.0045 20.936 75.6965 21.3607 75.2298 21.678C74.7632 21.986 74.2032 22.14 73.5498 22.14C72.9058 22.14 72.3412 21.986 71.8558 21.678C71.3798 21.37 71.0065 20.9407 70.7358 20.39C70.4745 19.8393 70.3438 19.1953 70.3438 18.458C70.3438 17.7113 70.4792 17.058 70.7498 16.498C71.0205 15.938 71.3985 15.504 71.8838 15.196C72.3692 14.888 72.9385 14.734 73.5918 14.734C74.2732 14.734 74.8332 14.8973 75.2718 15.224C75.7198 15.5413 76.0138 15.9893 76.1538 16.568L75.9578 16.596V11.92H77.3998V22H76.0138ZM73.9138 20.922C74.5578 20.922 75.0665 20.7027 75.4398 20.264C75.8132 19.816 75.9998 19.2 75.9998 18.416C75.9998 17.6507 75.8085 17.0487 75.4258 16.61C75.0525 16.162 74.5438 15.938 73.8998 15.938C73.2652 15.938 72.7612 16.162 72.3878 16.61C72.0238 17.0487 71.8418 17.6647 71.8418 18.458C71.8418 19.2327 72.0238 19.8393 72.3878 20.278C72.7612 20.7073 73.2698 20.922 73.9138 20.922ZM82.5278 22.14C81.8091 22.14 81.1744 21.9813 80.6238 21.664C80.0824 21.3467 79.6578 20.908 79.3498 20.348C79.0418 19.788 78.8878 19.144 78.8878 18.416C78.8878 17.6787 79.0371 17.0347 79.3358 16.484C79.6438 15.924 80.0731 15.49 80.6238 15.182C81.1744 14.874 81.8044 14.72 82.5138 14.72C83.2044 14.72 83.8018 14.8693 84.3058 15.168C84.8191 15.4573 85.2111 15.8633 85.4818 16.386C85.7618 16.9087 85.9018 17.5293 85.9018 18.248C85.9018 18.36 85.8971 18.4673 85.8878 18.57C85.8878 18.6633 85.8784 18.7613 85.8598 18.864H79.8678V17.772H84.8378L84.4738 18.206C84.4738 17.4407 84.3011 16.8573 83.9558 16.456C83.6104 16.0547 83.1298 15.854 82.5138 15.854C81.8511 15.854 81.3238 16.0827 80.9318 16.54C80.5491 16.988 80.3578 17.6133 80.3578 18.416C80.3578 19.228 80.5491 19.8627 80.9318 20.32C81.3238 20.7773 81.8651 21.006 82.5558 21.006C82.9758 21.006 83.3398 20.922 83.6478 20.754C83.9558 20.5767 84.1844 20.32 84.3338 19.984H85.7058C85.4724 20.656 85.0758 21.1833 84.5158 21.566C83.9651 21.9487 83.3024 22.14 82.5278 22.14Z" fill="white"/>
</svg>
