<svg width="30" height="30" viewBox="0 0 30 30" fill="none" xmlns="http://www.w3.org/2000/svg">
<rect width="30" height="30" rx="15" fill="#499746"/>
<path fill-rule="evenodd" clip-rule="evenodd" d="M18.9125 11.0874C19.1403 11.3152 19.1403 11.6845 18.9125 11.9123L12.4958 18.329C12.268 18.5568 11.8987 18.5568 11.6709 18.329L8.75419 15.4123C8.52638 15.1845 8.52638 14.8152 8.75419 14.5874C8.98199 14.3596 9.35134 14.3596 9.57915 14.5874L12.0833 17.0915L18.0875 11.0874C18.3153 10.8596 18.6847 10.8596 18.9125 11.0874Z" fill="white"/>
<path fill-rule="evenodd" clip-rule="evenodd" d="M21.2458 13.4209C21.4736 13.6487 21.4736 14.018 21.2458 14.2458L16.8708 18.6208C16.643 18.8486 16.2737 18.8486 16.0459 18.6208L15.1709 17.7458C14.943 17.518 14.943 17.1487 15.1709 16.9209C15.3987 16.693 15.768 16.693 15.9958 16.9209L16.4583 17.3834L20.4209 13.4209C20.6487 13.193 21.018 13.193 21.2458 13.4209Z" fill="white"/>
</svg>
