<svg width="30" height="30" viewBox="0 0 30 30" fill="none" xmlns="http://www.w3.org/2000/svg">
<rect width="30" height="30" rx="15" fill="#F53636"/>
<path fill-rule="evenodd" clip-rule="evenodd" d="M15 10.9165C15.3222 10.9165 15.5833 11.1777 15.5833 11.4998V14.6393L17.5942 15.6448C17.8824 15.7888 17.9992 16.1392 17.8551 16.4274C17.711 16.7155 17.3606 16.8323 17.0725 16.6883L14.7391 15.5216C14.5415 15.4228 14.4167 15.2208 14.4167 14.9998V11.4998C14.4167 11.1777 14.6778 10.9165 15 10.9165Z" fill="white"/>
<path fill-rule="evenodd" clip-rule="evenodd" d="M17.6805 10.4847C16.7953 9.95856 15.7749 9.70437 14.7463 9.75377C13.7177 9.80316 12.7264 10.154 11.8957 10.7625C11.0649 11.371 10.4315 12.2104 10.0743 13.1762C9.71697 14.142 9.65161 15.1916 9.8863 16.1942C10.121 17.1969 10.6454 18.1084 11.3942 18.8153C12.143 19.5222 13.0831 19.9933 14.0976 20.1699C15.1121 20.3465 16.1562 20.2209 17.0998 19.8087C17.395 19.6797 17.7389 19.8145 17.8679 20.1097C17.9969 20.4049 17.8621 20.7488 17.5669 20.8778C16.4135 21.3816 15.1375 21.5352 13.8975 21.3193C12.6576 21.1034 11.5085 20.5276 10.5933 19.6637C9.67808 18.7997 9.03718 17.6856 8.75033 16.4601C8.46349 15.2346 8.54338 13.9519 8.98005 12.7714C9.41673 11.591 10.1909 10.5651 11.2062 9.82132C12.2216 9.07756 13.4332 8.64881 14.6904 8.58844C15.9475 8.52807 17.1947 8.83875 18.2766 9.4818C19.3585 10.1249 20.2274 11.0719 20.7752 12.205C20.9154 12.4951 20.7939 12.8439 20.5039 12.9841C20.2138 13.1243 19.865 13.0028 19.7248 12.7128C19.2766 11.7857 18.5657 11.0108 17.6805 10.4847Z" fill="white"/>
<path fill-rule="evenodd" clip-rule="evenodd" d="M19.6667 14.125C19.9888 14.125 20.25 14.3862 20.25 14.7083V18.2083C20.25 18.5305 19.9888 18.7917 19.6667 18.7917C19.3445 18.7917 19.0833 18.5305 19.0833 18.2083V14.7083C19.0833 14.3862 19.3445 14.125 19.6667 14.125Z" fill="white"/>
<path fill-rule="evenodd" clip-rule="evenodd" d="M19.0833 20.5418C19.0833 20.2197 19.3445 19.9585 19.6667 19.9585H19.6725C19.9947 19.9585 20.2558 20.2197 20.2558 20.5418C20.2558 20.864 19.9947 21.1252 19.6725 21.1252H19.6667C19.3445 21.1252 19.0833 20.864 19.0833 20.5418Z" fill="white"/>
</svg>
