<svg width="18" height="18" viewBox="0 0 18 18" fill="none" xmlns="http://www.w3.org/2000/svg">
<g clip-path="url(#clip0_2011_54135)">
<path d="M7.93843 7.94043C7.65717 8.22179 7.4992 8.60336 7.49927 9.00119C7.49934 9.39903 7.65744 9.78054 7.93881 10.0618C8.22017 10.3431 8.60174 10.501 8.99957 10.501C9.39741 10.5009 9.77892 10.3428 10.0602 10.0614" stroke="#475569" stroke-linecap="round" stroke-linejoin="round"/>
<path d="M12.5107 12.5048C11.4587 13.163 10.241 13.5082 9 13.5C6.3 13.5 4.05 12 2.25 9.00002C3.204 7.41002 4.284 6.24152 5.49 5.49452M7.635 4.63502C8.08428 4.54407 8.54161 4.49884 9 4.50002C11.7 4.50002 13.95 6.00002 15.75 9.00002C15.2505 9.83252 14.7157 10.5503 14.1465 11.1525" stroke="#475569" stroke-linecap="round" stroke-linejoin="round"/>
<path d="M2.25 2.25L15.75 15.75" stroke="#475569" stroke-linecap="round" stroke-linejoin="round"/>
</g>
<defs>
<clipPath id="clip0_2011_54135">
<rect width="18" height="18" fill="white"/>
</clipPath>
</defs>
</svg>
