<svg width="20" height="20" viewBox="0 0 20 20" fill="none" xmlns="http://www.w3.org/2000/svg">
<g clip-path="url(#clip0_12_112)">
<path d="M9.99997 0C15.5231 0 20 4.4775 20 10C20 15.5232 15.5231 20 9.99997 20C4.47681 20 0 15.5231 0 10C0 4.4775 4.47688 0 9.99997 0Z" fill="#0D76E1"/>
<path d="M11.2175 6.88435H12.5063V4.98059H10.9913V4.98746C9.15565 5.05247 8.77943 6.08433 8.74627 7.16809H8.74249V8.11873H7.49252V9.98308H8.74249V14.9806H10.6263V9.98308H12.1694L12.4675 8.11873H10.6269V7.54438C10.6269 7.17811 10.8706 6.88435 11.2175 6.88435Z" fill="white"/>
</g>
<defs>
<clipPath id="clip0_12_112">
<rect width="20" height="20" fill="white"/>
</clipPath>
</defs>
</svg>
