<svg width="21" height="20" viewBox="0 0 21 20" fill="none" xmlns="http://www.w3.org/2000/svg">
<g clip-path="url(#clip0_5108_19355)">
<path d="M19.914 8.26113L11.7562 8.26074C11.396 8.26074 11.104 8.5527 11.104 8.91293V11.519C11.104 11.8791 11.396 12.1712 11.7562 12.1712H16.3502C15.8471 13.4767 14.9082 14.57 13.7103 15.2647L15.6692 18.6557C18.8115 16.8384 20.6692 13.6497 20.6692 10.0803C20.6692 9.57203 20.6317 9.20871 20.5568 8.79961C20.4999 8.48879 20.23 8.26113 19.914 8.26113Z" fill="#167EE6"/>
<path d="M10.6692 16.0871C8.42105 16.0871 6.45839 14.8587 5.40429 13.041L2.01343 14.9955C3.73901 17.9862 6.97159 20.0001 10.6692 20.0001C12.4832 20.0001 14.1948 19.5117 15.6692 18.6606V18.6559L13.7104 15.2649C12.8144 15.7846 11.7775 16.0871 10.6692 16.0871Z" fill="#12B347"/>
<path d="M15.6691 18.6603V18.6557L13.7102 15.2646C12.8142 15.7843 11.7774 16.0868 10.6691 16.0868V19.9998C12.483 19.9998 14.1947 19.5114 15.6691 18.6603Z" fill="#0F993E"/>
<path d="M4.58211 10.0002C4.58211 8.89207 4.88454 7.85531 5.40411 6.95934L2.01325 5.00488C1.15743 6.47469 0.669067 8.18164 0.669067 10.0002C0.669067 11.8188 1.15743 13.5258 2.01325 14.9956L5.40411 13.0411C4.88454 12.1452 4.58211 11.1084 4.58211 10.0002Z" fill="#FFC107"/>
<path d="M10.6692 3.91305C12.1353 3.91305 13.4819 4.43398 14.5338 5.30051C14.7933 5.51426 15.1704 5.49883 15.4081 5.26113L17.2546 3.41465C17.5243 3.14496 17.5051 2.70352 17.217 2.45359C15.4547 0.924727 13.1617 0 10.6692 0C6.97159 0 3.73901 2.01395 2.01343 5.00465L5.40429 6.9591C6.45839 5.14141 8.42105 3.91305 10.6692 3.91305Z" fill="#FD3A55"/>
<path d="M14.5336 5.30051C14.7931 5.51426 15.1703 5.49883 15.4079 5.26113L17.2544 3.41465C17.5241 3.14496 17.5049 2.70352 17.2168 2.45359C15.4545 0.924688 13.1615 0 10.6691 0V3.91305C12.1351 3.91305 13.4818 4.43398 14.5336 5.30051Z" fill="#D93F21"/>
</g>
<defs>
<clipPath id="clip0_5108_19355">
<rect width="20" height="20" fill="white" transform="translate(0.669067)"/>
</clipPath>
</defs>
</svg>
