<svg width="30" height="30" viewBox="0 0 30 30" fill="none" xmlns="http://www.w3.org/2000/svg">
<rect width="30" height="30" rx="15" fill="#FFB959"/>
<path fill-rule="evenodd" clip-rule="evenodd" d="M9.16666 13.2498C9.16666 12.9277 9.42782 12.6665 9.74999 12.6665H20.25C20.5722 12.6665 20.8333 12.9277 20.8333 13.2498V19.0832C20.8333 19.5473 20.6489 19.9924 20.3208 20.3206C19.9926 20.6488 19.5475 20.8332 19.0833 20.8332H10.9167C10.4525 20.8332 10.0074 20.6488 9.67922 20.3206C9.35103 19.9924 9.16666 19.5473 9.16666 19.0832V13.2498ZM10.3333 13.8332V19.0832C10.3333 19.2379 10.3948 19.3863 10.5042 19.4956C10.6136 19.605 10.7619 19.6665 10.9167 19.6665H19.0833C19.238 19.6665 19.3864 19.605 19.4958 19.4956C19.6052 19.3863 19.6667 19.2379 19.6667 19.0832V13.8332H10.3333Z" fill="white"/>
<path fill-rule="evenodd" clip-rule="evenodd" d="M18.089 10.4188C17.9962 10.3621 17.8894 10.3324 17.7807 10.3332C17.7794 10.3332 17.778 10.3332 17.7767 10.3332L12.2222 10.3332C12.114 10.333 12.0078 10.3629 11.9156 10.4195C11.8236 10.4761 11.7491 10.557 11.7004 10.6534C11.7003 10.6536 11.7002 10.6538 11.7001 10.654L10.2717 13.5107C10.1277 13.7989 9.77728 13.9157 9.48912 13.7716C9.20097 13.6275 9.08417 13.2771 9.22825 12.989L10.6574 10.1307C10.6577 10.1301 10.658 10.1296 10.6582 10.129C10.8043 9.83911 11.0282 9.59553 11.3048 9.42556C11.5812 9.25569 11.8994 9.16601 12.2239 9.16653H17.7748C18.1002 9.16468 18.4197 9.25358 18.6973 9.42326C18.9756 9.59333 19.2008 9.83778 19.3476 10.129L19.3482 10.1302L19.3488 10.1315L20.7722 12.9898C20.9158 13.2782 20.7984 13.6284 20.51 13.772C20.2216 13.9156 19.8714 13.7983 19.7278 13.5099L18.3057 10.654C18.3055 10.6537 18.3054 10.6533 18.3052 10.6529C18.2563 10.5563 18.1814 10.4752 18.089 10.4188Z" fill="white"/>
<path fill-rule="evenodd" clip-rule="evenodd" d="M15 9.1665C15.3222 9.1665 15.5833 9.42767 15.5833 9.74984V13.2498C15.5833 13.572 15.3222 13.8332 15 13.8332C14.6778 13.8332 14.4167 13.572 14.4167 13.2498V9.74984C14.4167 9.42767 14.6778 9.1665 15 9.1665Z" fill="white"/>
</svg>
