<svg width="30" height="30" viewBox="0 0 30 30" fill="none" xmlns="http://www.w3.org/2000/svg">
<rect width="30" height="30" rx="15" fill="#64748B"/>
<g clip-path="url(#clip0_2017_76398)">
<path fill-rule="evenodd" clip-rule="evenodd" d="M11.4292 9.09606C11.7574 8.76787 12.2025 8.5835 12.6667 8.5835H19.6667C20.1308 8.5835 20.5759 8.76787 20.9041 9.09606C21.2323 9.42425 21.4167 9.86937 21.4167 10.3335V19.6668C21.4167 20.131 21.2323 20.5761 20.9041 20.9043C20.5759 21.2325 20.1308 21.4168 19.6667 21.4168H10.3333C9.86921 21.4168 9.4241 21.2325 9.09591 20.9043C8.76772 20.5761 8.58334 20.131 8.58334 19.6668V14.4168C8.58334 13.453 9.36951 12.6668 10.3333 12.6668H10.9167V10.3335C10.9167 9.86937 11.1011 9.42425 11.4292 9.09606ZM10.9167 13.8335H10.3333C10.0138 13.8335 9.75001 14.0973 9.75001 14.4168V19.6668C9.75001 19.8215 9.81147 19.9699 9.92086 20.0793C10.0303 20.1887 10.1786 20.2502 10.3333 20.2502C10.4881 20.2502 10.6364 20.1887 10.7458 20.0793C10.8552 19.9699 10.9167 19.8215 10.9167 19.6668V13.8335ZM11.9833 20.2502C12.0489 20.0645 12.0833 19.8675 12.0833 19.6668V10.3335C12.0833 10.1788 12.1448 10.0304 12.2542 9.92102C12.3636 9.81162 12.512 9.75016 12.6667 9.75016H19.6667C19.8214 9.75016 19.9698 9.81162 20.0792 9.92102C20.1886 10.0304 20.25 10.1788 20.25 10.3335V19.6668C20.25 19.8215 20.1886 19.9699 20.0792 20.0793C19.9698 20.1887 19.8214 20.2502 19.6667 20.2502H11.9833Z" fill="white"/>
<path fill-rule="evenodd" clip-rule="evenodd" d="M13.25 16.1668C13.25 15.8447 13.5112 15.5835 13.8333 15.5835H18.5C18.8222 15.5835 19.0833 15.8447 19.0833 16.1668C19.0833 16.489 18.8222 16.7502 18.5 16.7502H13.8333C13.5112 16.7502 13.25 16.489 13.25 16.1668Z" fill="white"/>
<path fill-rule="evenodd" clip-rule="evenodd" d="M13.25 18.4998C13.25 18.1777 13.5112 17.9165 13.8333 17.9165H16.75C17.0722 17.9165 17.3333 18.1777 17.3333 18.4998C17.3333 18.822 17.0722 19.0832 16.75 19.0832H13.8333C13.5112 19.0832 13.25 18.822 13.25 18.4998Z" fill="white"/>
<path fill-rule="evenodd" clip-rule="evenodd" d="M13.25 11.4998C13.25 11.1777 13.5112 10.9165 13.8333 10.9165H18.5C18.8222 10.9165 19.0833 11.1777 19.0833 11.4998V13.8332C19.0833 14.1553 18.8222 14.4165 18.5 14.4165H13.8333C13.5112 14.4165 13.25 14.1553 13.25 13.8332V11.4998ZM14.4167 12.0832V13.2498H17.9167V12.0832H14.4167Z" fill="white"/>
</g>
<defs>
<clipPath id="clip0_2017_76398">
<rect width="14" height="14" fill="white" transform="translate(8 8)"/>
</clipPath>
</defs>
</svg>
