<svg width="135" height="37" viewBox="0 0 135 37" fill="none" xmlns="http://www.w3.org/2000/svg">
<path d="M2.40173 13.4446C2.80245 9.69205 5.96871 6.84589 9.74253 6.84589H23.0382C26.806 6.84589 29.9692 9.68316 30.3773 13.4288L30.9385 18.5785C31.8816 27.2338 25.1024 34.7919 16.396 34.7919C7.70221 34.7919 0.927016 27.2546 1.85015 18.6099L2.40173 13.4446Z" fill="#0D76E1"/>
<path d="M1.18627 25.3039C1.73215 20.1519 6.07788 16.2423 11.2588 16.2423H21.6032C26.796 16.2423 31.1477 20.1694 31.6789 25.335C32.2931 31.3073 27.607 36.5001 21.6031 36.5001H11.2588C5.24248 36.5001 0.552369 31.2868 1.18627 25.3039Z" fill="#FFA80B"/>
<path d="M23.2474 8.79837L23.2474 7.45599C23.2474 3.6143 20.1331 0.500002 16.2915 0.500001C12.4498 0.500001 9.33554 3.6143 9.33554 7.45599L9.33554 8.79837" stroke="#0D76E1" stroke-linecap="round"/>
<path d="M13.1238 26.4159V34.6935H21.5259C23.8355 34.6935 25.8133 33.8913 27.4591 32.287C29.1188 30.6688 29.9486 28.7118 29.9486 26.4159C29.9486 24.12 29.1188 22.163 27.4591 20.5448C25.7995 18.9128 23.8217 18.0968 21.5259 18.0968C19.23 18.0968 17.2522 18.9128 15.5926 20.5448C13.9467 22.163 13.1238 24.12 13.1238 26.4159ZM16.6299 31.3949V26.4159C16.6299 25.0467 17.1001 23.8711 18.0406 22.8891C18.9949 21.8933 20.1566 21.3954 21.5259 21.3954C22.8951 21.3954 24.0499 21.8933 24.9904 22.8891C25.9447 23.8711 26.4219 25.0467 26.4219 26.4159C26.4219 27.7851 25.9447 28.9607 24.9904 29.9427C24.0499 30.9108 22.8951 31.3949 21.5259 31.3949H16.6299Z" fill="white"/>
<path d="M24.2092 9.4101L22.3933 9.4101" stroke="white" stroke-width="0.5" stroke-linecap="round"/>
<path d="M10.2972 9.4101L8.48128 9.4101" stroke="white" stroke-width="0.5" stroke-linecap="round"/>
<path d="M38.0327 25.0891C38.0327 23.6503 38.5379 22.4221 39.5481 21.4048C40.5583 20.3728 41.7882 19.8569 43.2376 19.8569H44.9287C45.895 19.8569 46.7149 19.5226 47.3883 18.854C48.0765 18.1709 48.4205 17.3498 48.4205 16.3905H43.2376C40.8072 16.3905 38.7135 17.2407 36.9566 18.9412C35.2143 20.6272 34.3432 22.6765 34.3432 25.0891V33.8314C35.3534 33.8314 36.2173 33.4753 36.9347 32.7631C37.6667 32.0364 38.0327 31.1716 38.0327 30.1688V25.0891Z" fill="#0B0D0E"/>
<path d="M54.7673 33.8314C52.3368 33.8314 50.2505 32.9884 48.5082 31.3025C46.7659 29.602 45.8948 27.5454 45.8948 25.1327C45.8948 22.7201 46.7659 20.6635 48.5082 18.963C50.2505 17.248 52.3368 16.3905 54.7673 16.3905H59.9721C59.9721 17.3498 59.6281 18.1709 58.9399 18.854C58.2518 19.5226 57.4246 19.8569 56.4583 19.8569H54.7673C53.3324 19.8569 52.1099 20.3801 51.0997 21.4266C50.0894 22.473 49.5843 23.7084 49.5843 25.1327C49.5843 26.5571 50.0894 27.7852 51.0997 28.8171C52.1099 29.849 53.3324 30.365 54.7673 30.365H56.4583C57.4246 30.365 58.2518 30.7066 58.9399 31.3897C59.6281 32.0582 59.9721 32.8721 59.9721 33.8314H54.7673ZM53.5374 23.3887H59.9721C59.9721 24.3479 59.6281 25.1618 58.9399 25.8304C58.2518 26.4989 57.4246 26.8332 56.4583 26.8332H53.5374C53.0543 26.8332 52.6443 26.6734 52.3076 26.3536C51.9708 26.0193 51.8024 25.6124 51.8024 25.1327C51.8024 24.6386 51.9635 24.2244 52.2856 23.8901C52.6223 23.5558 53.0396 23.3887 53.5374 23.3887Z" fill="#0B0D0E"/>
<path d="M78.9328 25.1327V33.8314H70.0165C67.586 33.8314 65.4924 32.9884 63.7355 31.3025C61.9932 29.602 61.122 27.5454 61.122 25.1327C61.122 22.7201 61.9932 20.6635 63.7355 18.963C65.4924 17.248 67.586 16.3905 70.0165 16.3905C72.4469 16.3905 74.5405 17.248 76.2975 18.963C78.0544 20.6635 78.9328 22.7201 78.9328 25.1327ZM75.1994 30.365V25.1327C75.1994 23.6939 74.6943 22.4585 73.684 21.4266C72.6884 20.3801 71.4659 19.8569 70.0165 19.8569C68.567 19.8569 67.3371 20.3801 66.3269 21.4266C65.3313 22.4585 64.8335 23.6939 64.8335 25.1327C64.8335 26.5716 65.3313 27.807 66.3269 28.8389C67.3371 29.8563 68.567 30.365 70.0165 30.365H75.1994Z" fill="#0B0D0E"/>
<path d="M98.4055 25.1327V33.8314C97.3953 33.8314 96.5241 33.4753 95.7921 32.7631C95.0747 32.0364 94.716 31.1716 94.716 30.1688V25.1327C94.716 23.6939 94.2108 22.4585 93.2006 21.4266C92.205 20.3801 90.9825 19.8569 89.533 19.8569C88.0836 19.8569 86.8537 20.3801 85.8435 21.4266C84.8333 22.4585 84.3282 23.6939 84.3282 25.1327V30.1688C84.3282 31.1862 83.9694 32.051 83.252 32.7631C82.5346 33.4753 81.6635 33.8314 80.6386 33.8314V25.1327C80.6386 22.7201 81.5098 20.6635 83.252 18.963C85.009 17.248 87.1026 16.3905 89.533 16.3905C90.9093 16.3905 92.2123 16.6957 93.4422 17.3062C94.672 17.902 95.7189 18.7378 96.5827 19.8133C97.4172 18.7523 98.4567 17.9166 99.7012 17.3062C100.946 16.6957 102.249 16.3905 103.61 16.3905C106.041 16.3905 108.127 17.248 109.869 18.963C111.612 20.6635 112.483 22.7201 112.483 25.1327V33.8314C111.473 33.8314 110.601 33.4753 109.869 32.7631C109.152 32.0364 108.793 31.1716 108.793 30.1688V25.1327C108.793 23.6939 108.288 22.4585 107.278 21.4266C106.282 20.3801 105.06 19.8569 103.61 19.8569C102.161 19.8569 100.931 20.3801 99.9208 21.4266C98.9106 22.4585 98.4055 23.6939 98.4055 25.1327Z" fill="#0B0D0E"/>
<path d="M122.57 23.2142C122.57 21.3248 123.251 19.7188 124.613 18.3962C125.989 17.0591 127.636 16.3905 129.554 16.3905H134.605C134.605 17.3643 134.261 18.1855 133.573 18.854C132.885 19.5226 132.05 19.8569 131.069 19.8569H130.301C129.173 19.8569 128.207 20.2638 127.402 21.0777C126.611 21.8771 126.216 22.8436 126.216 23.9773V27.0076C126.216 28.8971 125.535 30.5103 124.173 31.8475C122.812 33.1701 121.172 33.8314 119.254 33.8314H114.203C114.203 32.8721 114.54 32.0582 115.213 31.3897C115.901 30.7066 116.728 30.365 117.695 30.365H118.485C119.627 30.365 120.594 29.9653 121.384 29.1659C122.175 28.352 122.57 27.3783 122.57 26.2446V23.2142Z" fill="#0B0D0E"/>
<path d="M112.93 2.45425C113.845 2.45425 114.623 2.79035 115.263 3.46255C115.876 4.12566 116.183 4.91595 116.183 5.83342C116.183 6.74179 115.876 7.52754 115.263 8.19066C114.623 8.86286 113.845 9.19896 112.93 9.19896H110.267V11.0112H108.112V2.45425H112.93ZM112.93 7.05973C113.241 7.05973 113.502 6.93255 113.712 6.67821C113.923 6.42386 114.028 6.14226 114.028 5.83342C114.028 5.51548 113.923 5.22934 113.712 4.975C113.502 4.72065 113.241 4.59348 112.93 4.59348H110.267V7.05973H112.93Z" fill="url(#paint0_linear_12_49)"/>
<path d="M121.34 2.19536C122.584 2.19536 123.636 2.64501 124.497 3.5443C125.366 4.43451 125.801 5.50186 125.801 6.74634C125.801 7.98173 125.366 9.04908 124.497 9.94837C123.636 10.8477 122.584 11.2973 121.34 11.2973C120.095 11.2973 119.038 10.8477 118.169 9.94837C117.3 9.04908 116.865 7.98173 116.865 6.74634C116.865 5.50186 117.3 4.43451 118.169 3.5443C119.038 2.64501 120.095 2.19536 121.34 2.19536ZM121.34 9.14446C121.98 9.14446 122.525 8.90828 122.973 8.43592C123.421 7.95448 123.646 7.39129 123.646 6.74634C123.646 6.0923 123.421 5.52911 122.973 5.05675C122.525 4.57531 121.98 4.33459 121.34 4.33459C120.69 4.33459 120.141 4.57531 119.693 5.05675C119.244 5.52911 119.02 6.0923 119.02 6.74634C119.02 7.39129 119.244 7.95448 119.693 8.43592C120.141 8.90828 120.69 9.14446 121.34 9.14446Z" fill="url(#paint1_linear_12_49)"/>
<path d="M128.672 4.975C128.672 5.39285 128.813 5.60178 129.097 5.60178H132.144C132.867 5.60178 133.48 5.85613 133.984 6.36482C134.496 6.87351 134.752 7.48666 134.752 8.20428V8.39504C134.752 9.11266 134.496 9.72582 133.984 10.2345C133.48 10.7432 132.867 10.9976 132.144 10.9976H127.148V8.83107H132.144C132.263 8.83107 132.364 8.79019 132.446 8.70843C132.538 8.6176 132.584 8.51313 132.584 8.39504C132.584 7.97719 132.437 7.76826 132.144 7.76826H129.097C128.383 7.76826 127.77 7.51392 127.258 7.00522C126.745 6.49653 126.489 5.88338 126.489 5.16576V4.975C126.489 4.25738 126.745 3.64422 127.258 3.13553C127.77 2.62684 128.383 2.37249 129.097 2.37249H134.107V4.53898H129.097C128.987 4.53898 128.887 4.58439 128.795 4.67523C128.713 4.75699 128.672 4.85691 128.672 4.975Z" fill="url(#paint2_linear_12_49)"/>
<defs>
<linearGradient id="paint0_linear_12_49" x1="34.3432" y1="18.0134" x2="134.752" y2="18.0134" gradientUnits="userSpaceOnUse">
<stop offset="0.74521" stop-color="#0D76E1"/>
<stop offset="1" stop-color="#E1780D"/>
</linearGradient>
<linearGradient id="paint1_linear_12_49" x1="34.3432" y1="18.0134" x2="134.752" y2="18.0134" gradientUnits="userSpaceOnUse">
<stop offset="0.74521" stop-color="#0D76E1"/>
<stop offset="1" stop-color="#E1780D"/>
</linearGradient>
<linearGradient id="paint2_linear_12_49" x1="34.3432" y1="18.0134" x2="134.752" y2="18.0134" gradientUnits="userSpaceOnUse">
<stop offset="0.74521" stop-color="#0D76E1"/>
<stop offset="1" stop-color="#E1780D"/>
</linearGradient>
</defs>
</svg>
