<svg width="16" height="16" viewBox="0 0 16 16" fill="none" xmlns="http://www.w3.org/2000/svg">
<path fill-rule="evenodd" clip-rule="evenodd" d="M5.33333 0.666626C5.70152 0.666626 6 0.965103 6 1.33329V3.99996C6 4.36815 5.70152 4.66663 5.33333 4.66663C4.96514 4.66663 4.66667 4.36815 4.66667 3.99996V1.33329C4.66667 0.965103 4.96514 0.666626 5.33333 0.666626Z" fill="#0F172A"/>
<path fill-rule="evenodd" clip-rule="evenodd" d="M10.6667 0.666626C11.0349 0.666626 11.3333 0.965103 11.3333 1.33329V3.99996C11.3333 4.36815 11.0349 4.66663 10.6667 4.66663C10.2985 4.66663 10 4.36815 10 3.99996V1.33329C10 0.965103 10.2985 0.666626 10.6667 0.666626Z" fill="#0F172A"/>
<path fill-rule="evenodd" clip-rule="evenodd" d="M1.91912 2.58579C2.29419 2.21071 2.8029 2 3.33333 2H12.6667C13.1971 2 13.7058 2.21071 14.0809 2.58579C14.456 2.96086 14.6667 3.46957 14.6667 4V11.3333C14.6667 11.5101 14.5964 11.6797 14.4714 11.8047L11.1381 15.1381C11.013 15.2631 10.8435 15.3333 10.6667 15.3333H3.33333C2.8029 15.3333 2.29419 15.1226 1.91912 14.7475C1.54405 14.3725 1.33333 13.8638 1.33333 13.3333V4C1.33333 3.46957 1.54405 2.96086 1.91912 2.58579ZM3.33333 3.33333C3.15652 3.33333 2.98695 3.40357 2.86193 3.5286C2.7369 3.65362 2.66667 3.82319 2.66667 4V13.3333C2.66667 13.5101 2.7369 13.6797 2.86193 13.8047C2.98695 13.9298 3.15652 14 3.33333 14H10.3905L13.3333 11.0572V4C13.3333 3.82319 13.2631 3.65362 13.1381 3.5286C13.013 3.40357 12.8435 3.33333 12.6667 3.33333H3.33333Z" fill="#0F172A"/>
<path fill-rule="evenodd" clip-rule="evenodd" d="M1.33333 6.66667C1.33333 6.29848 1.63181 6 2 6H14C14.3682 6 14.6667 6.29848 14.6667 6.66667C14.6667 7.03486 14.3682 7.33333 14 7.33333H2C1.63181 7.33333 1.33333 7.03486 1.33333 6.66667Z" fill="#0F172A"/>
<path fill-rule="evenodd" clip-rule="evenodd" d="M11.3333 11.3333C11.1565 11.3333 10.987 11.4036 10.8619 11.5286C10.7369 11.6536 10.6667 11.8232 10.6667 12V14.6667C10.6667 15.0349 10.3682 15.3333 10 15.3333C9.63181 15.3333 9.33333 15.0349 9.33333 14.6667V12C9.33333 11.4696 9.54405 10.9609 9.91912 10.5858C10.2942 10.2107 10.8029 10 11.3333 10H14C14.3682 10 14.6667 10.2985 14.6667 10.6667C14.6667 11.0349 14.3682 11.3333 14 11.3333H11.3333Z" fill="#0F172A"/>
</svg>
