<svg width="16" height="16" viewBox="0 0 16 16" fill="none" xmlns="http://www.w3.org/2000/svg">
<g clip-path="url(#clip0_4106_27987)">
<path fill-rule="evenodd" clip-rule="evenodd" d="M12.3333 9.99935C11.4128 9.99935 10.6666 10.7455 10.6666 11.666C10.6666 12.5865 11.4128 13.3327 12.3333 13.3327C13.2538 13.3327 14 12.5865 14 11.666C14 10.7455 13.2538 9.99935 12.3333 9.99935ZM9.33331 11.666C9.33331 10.0092 10.6765 8.66602 12.3333 8.66602C13.9902 8.66602 15.3333 10.0092 15.3333 11.666C15.3333 13.3229 13.9902 14.666 12.3333 14.666C10.6765 14.666 9.33331 13.3229 9.33331 11.666Z" fill="#475569"/>
<path fill-rule="evenodd" clip-rule="evenodd" d="M3.66669 9.99935C2.74621 9.99935 2.00002 10.7455 2.00002 11.666C2.00002 12.5865 2.74621 13.3327 3.66669 13.3327C4.58716 13.3327 5.33335 12.5865 5.33335 11.666C5.33335 10.7455 4.58716 9.99935 3.66669 9.99935ZM0.666687 11.666C0.666687 10.0092 2.00983 8.66602 3.66669 8.66602C5.32354 8.66602 6.66669 10.0092 6.66669 11.666C6.66669 13.3229 5.32354 14.666 3.66669 14.666C2.00983 14.666 0.666687 13.3229 0.666687 11.666Z" fill="#475569"/>
<path fill-rule="evenodd" clip-rule="evenodd" d="M8.66669 3.33333C8.66669 2.59695 9.26364 2 10 2C10.7364 2 11.3334 2.59695 11.3334 3.33333C11.3334 4.06971 10.7364 4.66667 10 4.66667C9.26364 4.66667 8.66669 4.06971 8.66669 3.33333Z" fill="#475569"/>
<path fill-rule="evenodd" clip-rule="evenodd" d="M8.7792 4.67559C8.9598 4.70652 9.11971 4.81043 9.22135 4.96289L10.3568 6.66602H11.3333C11.7015 6.66602 12 6.9645 12 7.33269C12 7.70088 11.7015 7.99935 11.3333 7.99935H9.99998C9.77708 7.99935 9.56893 7.88795 9.44528 7.70249L8.50286 6.28886L7.01492 7.40482L8.47139 8.86128C8.59641 8.98631 8.66665 9.15587 8.66665 9.33269V11.666C8.66665 12.0342 8.36817 12.3327 7.99998 12.3327C7.63179 12.3327 7.33331 12.0342 7.33331 11.666V9.60883L5.52858 7.80409C5.39192 7.66743 5.32129 7.4782 5.33499 7.28543C5.34869 7.09265 5.44537 6.91531 5.59998 6.79935L8.26665 4.79935C8.41323 4.68941 8.5986 4.64465 8.7792 4.67559Z" fill="#475569"/>
</g>
<defs>
<clipPath id="clip0_4106_27987">
<rect width="16" height="16" fill="white"/>
</clipPath>
</defs>
</svg>
