<svg width="16" height="16" viewBox="0 0 16 16" fill="none" xmlns="http://www.w3.org/2000/svg">
<path fill-rule="evenodd" clip-rule="evenodd" d="M2 9.33337C2.36819 9.33337 2.66667 9.63185 2.66667 10V12.6667C2.66667 12.8435 2.73691 13.0131 2.86193 13.1381C2.98696 13.2631 3.15653 13.3334 3.33334 13.3334H12.6667C12.8435 13.3334 13.013 13.2631 13.1381 13.1381C13.2631 13.0131 13.3333 12.8435 13.3333 12.6667V10C13.3333 9.63185 13.6318 9.33337 14 9.33337C14.3682 9.33337 14.6667 9.63185 14.6667 10V12.6667C14.6667 13.1971 14.456 13.7058 14.0809 14.0809C13.7058 14.456 13.1971 14.6667 12.6667 14.6667H3.33334C2.8029 14.6667 2.29419 14.456 1.91912 14.0809C1.54405 13.7058 1.33334 13.1971 1.33334 12.6667V10C1.33334 9.63185 1.63181 9.33337 2 9.33337Z" fill="#0F172A"/>
<path fill-rule="evenodd" clip-rule="evenodd" d="M7.5286 1.52864C7.78894 1.26829 8.21106 1.26829 8.4714 1.52864L11.8047 4.86197C12.0651 5.12232 12.0651 5.54443 11.8047 5.80478C11.5444 6.06513 11.1223 6.06513 10.8619 5.80478L8 2.94285L5.13807 5.80478C4.87772 6.06513 4.45561 6.06513 4.19526 5.80478C3.93491 5.54443 3.93491 5.12232 4.19526 4.86197L7.5286 1.52864Z" fill="#0F172A"/>
<path fill-rule="evenodd" clip-rule="evenodd" d="M8 1.33337C8.36819 1.33337 8.66667 1.63185 8.66667 2.00004V10C8.66667 10.3682 8.36819 10.6667 8 10.6667C7.63181 10.6667 7.33334 10.3682 7.33334 10V2.00004C7.33334 1.63185 7.63181 1.33337 8 1.33337Z" fill="#0F172A"/>
</svg>
