<svg width="16" height="16" viewBox="0 0 16 16" fill="none" xmlns="http://www.w3.org/2000/svg">
<path fill-rule="evenodd" clip-rule="evenodd" d="M7.99998 10.666C8.36817 10.666 8.66665 10.9645 8.66665 11.3327V14.666C8.66665 15.0342 8.36817 15.3327 7.99998 15.3327C7.63179 15.3327 7.33331 15.0342 7.33331 14.666V11.3327C7.33331 10.9645 7.63179 10.666 7.99998 10.666Z" fill="#475569"/>
<path fill-rule="evenodd" clip-rule="evenodd" d="M3.91914 1.2518C4.29421 0.876729 4.80292 0.666016 5.33335 0.666016H10.6667C11.1971 0.666016 11.7058 0.876729 12.0809 1.2518C12.456 1.62687 12.6667 2.13558 12.6667 2.66602C12.6667 3.19645 12.456 3.70516 12.0809 4.08023C11.7058 4.4553 11.1971 4.66602 10.6667 4.66602V7.17233C10.6668 7.29636 10.7014 7.41791 10.7668 7.52331C10.8321 7.62872 10.9256 7.7138 11.0367 7.769C11.0381 7.76968 11.0395 7.77038 11.0408 7.77107L12.2257 8.37016C12.5579 8.53576 12.8374 8.79056 13.0331 9.10604C13.2292 9.42226 13.3332 9.78691 13.3334 10.159V10.666C13.3334 11.0196 13.1929 11.3588 12.9428 11.6088C12.6928 11.8589 12.3536 11.9993 12 11.9993H4.00002C3.6464 11.9993 3.30726 11.8589 3.05721 11.6088C2.80716 11.3588 2.66669 11.0196 2.66669 10.666L2.66669 10.159C2.66688 9.78691 2.77088 9.42226 2.96697 9.10604C3.16261 8.79055 3.44218 8.53575 3.77439 8.37014L4.95921 7.77107C4.96059 7.77038 4.96197 7.76968 4.96335 7.769C5.07442 7.7138 5.1679 7.62872 5.23326 7.52331C5.29862 7.41791 5.33329 7.29636 5.33335 7.17233V4.66602C4.80292 4.66602 4.29421 4.4553 3.91914 4.08023C3.54407 3.70516 3.33335 3.19645 3.33335 2.66602C3.33335 2.13558 3.54407 1.62687 3.91914 1.2518ZM5.33335 1.99935C5.15654 1.99935 4.98697 2.06959 4.86195 2.19461C4.73692 2.31964 4.66669 2.4892 4.66669 2.66602C4.66669 2.84283 4.73692 3.0124 4.86195 3.13742C4.98697 3.26244 5.15654 3.33268 5.33335 3.33268C5.68698 3.33268 6.02611 3.47316 6.27616 3.72321C6.52621 3.97325 6.66669 4.31239 6.66669 4.66602V7.17304C6.66649 7.54512 6.5625 7.90977 6.36641 8.22599C6.17077 8.54148 5.89119 8.79628 5.55899 8.96189L4.37417 9.56096C4.37279 9.56166 4.37141 9.56235 4.37002 9.56304C4.25895 9.61823 4.16548 9.70331 4.10011 9.80872C4.03478 9.91408 4.00012 10.0356 4.00002 10.1595V10.666H12V10.1597C12 10.0357 11.9653 9.91412 11.8999 9.80872C11.8346 9.70331 11.7411 9.61823 11.63 9.56304C11.6286 9.56235 11.6273 9.56166 11.6259 9.56096L10.441 8.96187C10.1088 8.79627 9.82927 8.54147 9.63363 8.22599C9.43754 7.90977 9.33355 7.54512 9.33335 7.17304V4.66602C9.33335 4.31239 9.47383 3.97325 9.72388 3.72321C9.97393 3.47316 10.3131 3.33268 10.6667 3.33268C10.8435 3.33268 11.0131 3.26244 11.1381 3.13742C11.2631 3.0124 11.3334 2.84283 11.3334 2.66602C11.3334 2.4892 11.2631 2.31964 11.1381 2.19461C11.0131 2.06959 10.8435 1.99935 10.6667 1.99935H5.33335Z" fill="#475569"/>
</svg>
