<svg width="16" height="16" viewBox="0 0 16 16" fill="none" xmlns="http://www.w3.org/2000/svg">
<g clip-path="url(#clip0_3715_43468)">
<path fill-rule="evenodd" clip-rule="evenodd" d="M12.4597 2.23468C11.8109 1.9576 10.9922 1.91371 10.1122 2.15924C9.23254 2.40469 8.36265 2.92098 7.64182 3.64182C6.92098 4.36265 6.40469 5.23254 6.15924 6.11223C5.91371 6.99224 5.9576 7.81093 6.23468 8.45967C6.50836 9.10047 7.00675 9.57279 7.67182 9.81597C8.17186 9.99881 8.76116 10.0493 9.3928 9.94718C9.30894 9.51448 9.32556 9.0558 9.43152 8.60454C9.60639 7.85976 10.0185 7.1515 10.585 6.58501C11.1515 6.01851 11.8598 5.60639 12.6045 5.43152C13.0558 5.32556 13.5145 5.30894 13.9472 5.3928C14.0493 4.76116 13.9988 4.17186 13.816 3.67182C13.5728 3.00675 13.1005 2.50836 12.4597 2.23468ZM9.7539 0.874962C10.8725 0.562859 12.0087 0.592213 12.9834 1.00849C13.966 1.42817 14.6999 2.20661 15.0682 3.21394C15.4335 4.21296 15.4119 5.35736 15.0548 6.47032C14.9934 6.66167 14.8489 6.81512 14.6617 6.88797C14.4744 6.96082 14.2642 6.9453 14.0897 6.84572C13.7986 6.67967 13.3893 6.61684 12.9093 6.72955C12.4289 6.84234 11.9362 7.11945 11.5278 7.52782C11.1195 7.93618 10.8423 8.42894 10.7295 8.90932C10.6168 9.38934 10.6797 9.79855 10.8457 10.0897C10.9453 10.2642 10.9608 10.4744 10.888 10.6617C10.8151 10.8489 10.6617 10.9934 10.4703 11.0548C9.35736 11.4119 8.21296 11.4335 7.21394 11.0682C6.20661 10.6999 5.42816 9.96599 5.00849 8.98336C4.59221 8.00868 4.56286 6.8725 4.87496 5.7539C5.18716 4.63498 5.82993 3.56809 6.69901 2.69901C7.56809 1.82993 8.63498 1.18716 9.7539 0.874962Z" fill="#475569"/>
<path fill-rule="evenodd" clip-rule="evenodd" d="M5.99808 8.0019C6.25842 8.26225 6.25842 8.68436 5.99808 8.94471L4.26474 10.678C4.05489 10.8879 3.73158 10.9338 3.47164 10.7906C3.34462 10.7206 3.20391 10.6791 3.05925 10.6689C2.91459 10.6587 2.76945 10.6801 2.63389 10.7316C2.49833 10.7831 2.3756 10.8635 2.2742 10.9672C2.1728 11.0709 2.09516 11.1953 2.04667 11.332C1.99817 11.4687 1.97998 11.6143 1.99336 11.7587C2.00673 11.9031 2.05135 12.0428 2.12413 12.1683C2.1969 12.2937 2.29608 12.4018 2.4148 12.4851C2.53352 12.5684 2.66893 12.6248 2.81164 12.6506C3.08132 12.6992 3.29377 12.9079 3.34721 13.1766C3.37521 13.3175 3.43323 13.4507 3.51731 13.5671C3.60139 13.6835 3.70956 13.7805 3.83446 13.8514C3.95936 13.9222 4.09807 13.9654 4.24114 13.9779C4.38421 13.9903 4.52829 13.9719 4.66358 13.9237C4.79887 13.8755 4.92218 13.7987 5.02515 13.6986C5.12811 13.5985 5.2083 13.4773 5.26026 13.3435C5.31222 13.2096 5.33474 13.0661 5.32627 12.9227C5.31781 12.7793 5.27856 12.6395 5.21121 12.5126C5.0738 12.2539 5.12143 11.9357 5.3286 11.7286L7.05527 10.0019C7.31562 9.74155 7.73773 9.74155 7.99808 10.0019C8.25842 10.2623 8.25842 10.6844 7.99808 10.9447L6.57826 12.3645C6.6211 12.5208 6.64768 12.6815 6.65729 12.8441C6.67704 13.1786 6.62451 13.5135 6.50326 13.8259C6.38202 14.1383 6.19491 14.4209 5.95466 14.6545C5.71442 14.8881 5.42667 15.0672 5.111 15.1797C4.79533 15.2921 4.45915 15.3353 4.12531 15.3062C3.79148 15.2771 3.46783 15.1764 3.17639 15.011C2.88495 14.8456 2.63255 14.6194 2.43637 14.3477C2.32434 14.1926 2.23215 14.0247 2.1615 13.8481C1.98058 13.7794 1.80839 13.6884 1.64907 13.5766C1.37207 13.3823 1.14064 13.13 0.970836 12.8374C0.801033 12.5447 0.696917 12.2186 0.665708 11.8816C0.634499 11.5447 0.676943 11.205 0.790097 10.8861C0.903252 10.5672 1.08441 10.2768 1.32101 10.0349C1.55761 9.79298 1.84399 9.60544 2.16029 9.48525C2.4766 9.36506 2.81526 9.3151 3.15279 9.33884C3.31599 9.35032 3.47704 9.37889 3.63337 9.4238L5.05527 8.0019C5.31562 7.74155 5.73773 7.74155 5.99808 8.0019Z" fill="#475569"/>
</g>
<defs>
<clipPath id="clip0_3715_43468">
<rect width="16" height="16" fill="white"/>
</clipPath>
</defs>
</svg>
