<svg width="16" height="16" viewBox="0 0 16 16" fill="none" xmlns="http://www.w3.org/2000/svg">
<path fill-rule="evenodd" clip-rule="evenodd" d="M7.99997 1.99935C7.11592 1.99935 6.26807 2.35054 5.64295 2.97566C5.01783 3.60078 4.66664 4.44863 4.66664 5.33268C4.66664 7.76424 4.14468 9.37626 3.58523 10.4019C3.5345 10.4949 3.48358 10.5829 3.43285 10.666H12.5671C12.5164 10.5829 12.4654 10.4949 12.4147 10.4019C11.8553 9.37626 11.3333 7.76424 11.3333 5.33268C11.3333 4.44863 10.9821 3.60078 10.357 2.97566C9.73187 2.35054 8.88403 1.99935 7.99997 1.99935ZM14.3775 10.7832C14.377 10.7829 14.3764 10.7824 14.3756 10.7818C14.3705 10.778 14.3586 10.7689 14.3408 10.7541C14.3053 10.7246 14.2464 10.6721 14.1714 10.5929C14.0218 10.435 13.8064 10.169 13.5852 9.76345C13.1447 8.95577 12.6666 7.56779 12.6666 5.33268C12.6666 4.09501 12.175 2.90802 11.2998 2.03285C10.4246 1.15768 9.23765 0.666016 7.99997 0.666016C6.76229 0.666016 5.57531 1.15768 4.70014 2.03285C3.82497 2.90802 3.3333 4.09501 3.3333 5.33268C3.3333 7.56779 2.85526 8.95577 2.41471 9.76345C2.19351 10.169 1.97812 10.435 1.8285 10.5929C1.75352 10.6721 1.6946 10.7246 1.65912 10.7541C1.64137 10.7689 1.62947 10.778 1.62434 10.7818C1.62354 10.7824 1.6229 10.7829 1.62244 10.7832C1.38344 10.9474 1.27768 11.2477 1.36191 11.5259C1.44704 11.807 1.70619 11.9993 1.99997 11.9993H14C14.2937 11.9993 14.5529 11.807 14.638 11.5259C14.7223 11.2477 14.6165 10.9474 14.3775 10.7832Z" fill="#475569"/>
<path fill-rule="evenodd" clip-rule="evenodd" d="M6.54555 13.4166C6.86819 13.2392 7.27355 13.3569 7.45093 13.6796C7.505 13.7779 7.58449 13.8599 7.68109 13.9171C7.77769 13.9742 7.88785 14.0043 8.00008 14.0043C8.1123 14.0043 8.22246 13.9742 8.31906 13.9171C8.41566 13.8599 8.49515 13.7779 8.54922 13.6796C8.7266 13.3569 9.13196 13.2392 9.4546 13.4166C9.77724 13.594 9.89499 13.9993 9.7176 14.322C9.54849 14.6295 9.29989 14.8861 8.99776 15.0647C8.69564 15.2434 8.35108 15.3377 8.00008 15.3377C7.64907 15.3377 7.30451 15.2434 7.00239 15.0647C6.70026 14.8861 6.45166 14.6295 6.28255 14.322C6.10516 13.9993 6.22291 13.594 6.54555 13.4166Z" fill="#475569"/>
</svg>
