<svg width="16" height="16" viewBox="0 0 16 16" fill="none" xmlns="http://www.w3.org/2000/svg">
<path fill-rule="evenodd" clip-rule="evenodd" d="M2.66671 3.99996V6.66663H5.33337V3.99996H2.66671ZM1.33337 3.99996C1.33337 3.26358 1.93033 2.66663 2.66671 2.66663H5.33337C6.06975 2.66663 6.66671 3.26358 6.66671 3.99996V6.66663C6.66671 7.40301 6.06975 7.99996 5.33337 7.99996H2.66671C1.93033 7.99996 1.33337 7.40301 1.33337 6.66663V3.99996Z" fill="#475569"/>
<path fill-rule="evenodd" clip-rule="evenodd" d="M6.47145 9.52864C6.73179 9.78899 6.73179 10.2111 6.47145 10.4714L3.80478 13.1381C3.54443 13.3985 3.12232 13.3985 2.86197 13.1381L1.52864 11.8048C1.26829 11.5444 1.26829 11.1223 1.52864 10.862C1.78899 10.6016 2.2111 10.6016 2.47145 10.862L3.33337 11.7239L5.52864 9.52864C5.78899 9.26829 6.2111 9.26829 6.47145 9.52864Z" fill="#475569"/>
<path fill-rule="evenodd" clip-rule="evenodd" d="M8 4.00004C8 3.63185 8.29848 3.33337 8.66667 3.33337H14C14.3682 3.33337 14.6667 3.63185 14.6667 4.00004C14.6667 4.36823 14.3682 4.66671 14 4.66671H8.66667C8.29848 4.66671 8 4.36823 8 4.00004Z" fill="#475569"/>
<path fill-rule="evenodd" clip-rule="evenodd" d="M8 8.00004C8 7.63185 8.29848 7.33337 8.66667 7.33337H14C14.3682 7.33337 14.6667 7.63185 14.6667 8.00004C14.6667 8.36823 14.3682 8.66671 14 8.66671H8.66667C8.29848 8.66671 8 8.36823 8 8.00004Z" fill="#475569"/>
<path fill-rule="evenodd" clip-rule="evenodd" d="M8 12C8 11.6319 8.29848 11.3334 8.66667 11.3334H14C14.3682 11.3334 14.6667 11.6319 14.6667 12C14.6667 12.3682 14.3682 12.6667 14 12.6667H8.66667C8.29848 12.6667 8 12.3682 8 12Z" fill="#475569"/>
</svg>
