<svg width="16" height="16" viewBox="0 0 16 16" fill="none" xmlns="http://www.w3.org/2000/svg">
<g clip-path="url(#clip0_4106_27981)">
<path fill-rule="evenodd" clip-rule="evenodd" d="M8.00002 1.99935C4.68631 1.99935 2.00002 4.68564 2.00002 7.99935C2.00002 11.3131 4.68631 13.9993 8.00002 13.9993C11.3137 13.9993 14 11.3131 14 7.99935C14 4.68564 11.3137 1.99935 8.00002 1.99935ZM0.666687 7.99935C0.666687 3.94926 3.94993 0.666016 8.00002 0.666016C12.0501 0.666016 15.3334 3.94926 15.3334 7.99935C15.3334 12.0494 12.0501 15.3327 8.00002 15.3327C3.94993 15.3327 0.666687 12.0494 0.666687 7.99935Z" fill="#475569"/>
<path fill-rule="evenodd" clip-rule="evenodd" d="M5.25247 5.2518C5.62755 4.87673 6.13625 4.66602 6.66669 4.66602H10.6667C11.0349 4.66602 11.3334 4.96449 11.3334 5.33268C11.3334 5.70087 11.0349 5.99935 10.6667 5.99935H6.66669C6.48988 5.99935 6.32031 6.06959 6.19528 6.19461C6.07026 6.31964 6.00002 6.48921 6.00002 6.66602C6.00002 6.84283 6.07026 7.0124 6.19528 7.13742C6.32031 7.26244 6.48988 7.33268 6.66669 7.33268H9.33335C9.86379 7.33268 10.3725 7.5434 10.7476 7.91847C11.1226 8.29354 11.3334 8.80225 11.3334 9.33268C11.3334 9.86312 11.1226 10.3718 10.7476 10.7469C10.3725 11.122 9.86379 11.3327 9.33335 11.3327H5.33335C4.96516 11.3327 4.66669 11.0342 4.66669 10.666C4.66669 10.2978 4.96516 9.99935 5.33335 9.99935H9.33335C9.51016 9.99935 9.67973 9.92911 9.80476 9.80409C9.92978 9.67906 10 9.50949 10 9.33268C10 9.15587 9.92978 8.9863 9.80476 8.86128C9.67973 8.73625 9.51016 8.66602 9.33335 8.66602H6.66669C6.13625 8.66602 5.62755 8.4553 5.25247 8.08023C4.8774 7.70516 4.66669 7.19645 4.66669 6.66602C4.66669 6.13558 4.8774 5.62687 5.25247 5.2518Z" fill="#475569"/>
<path fill-rule="evenodd" clip-rule="evenodd" d="M7.99998 3.33398C8.36817 3.33398 8.66665 3.63246 8.66665 4.00065V12.0007C8.66665 12.3688 8.36817 12.6673 7.99998 12.6673C7.63179 12.6673 7.33331 12.3688 7.33331 12.0007V4.00065C7.33331 3.63246 7.63179 3.33398 7.99998 3.33398Z" fill="#475569"/>
</g>
<defs>
<clipPath id="clip0_4106_27981">
<rect width="16" height="16" fill="white"/>
</clipPath>
</defs>
</svg>
