<svg width="14" height="14" viewBox="0 0 14 14" fill="none" xmlns="http://www.w3.org/2000/svg">
<path fill-rule="evenodd" clip-rule="evenodd" d="M7.00001 1.75016C4.10052 1.75016 1.75001 4.10067 1.75001 7.00016C1.75001 9.89966 4.10052 12.2502 7.00001 12.2502C9.89951 12.2502 12.25 9.89966 12.25 7.00016C12.25 4.10067 9.89951 1.75016 7.00001 1.75016ZM0.583344 7.00016C0.583344 3.45634 3.45618 0.583496 7.00001 0.583496C10.5438 0.583496 13.4167 3.45634 13.4167 7.00016C13.4167 10.544 10.5438 13.4168 7.00001 13.4168C3.45618 13.4168 0.583344 10.544 0.583344 7.00016Z" fill="white"/>
<path fill-rule="evenodd" clip-rule="evenodd" d="M4.08334 6.99984C4.08334 6.67767 4.34451 6.4165 4.66668 6.4165H9.33334C9.65551 6.4165 9.91668 6.67767 9.91668 6.99984C9.91668 7.322 9.65551 7.58317 9.33334 7.58317H4.66668C4.34451 7.58317 4.08334 7.322 4.08334 6.99984Z" fill="white"/>
<path fill-rule="evenodd" clip-rule="evenodd" d="M6.99999 4.0835C7.32216 4.0835 7.58332 4.34466 7.58332 4.66683V9.3335C7.58332 9.65566 7.32216 9.91683 6.99999 9.91683C6.67782 9.91683 6.41666 9.65566 6.41666 9.3335V4.66683C6.41666 4.34466 6.67782 4.0835 6.99999 4.0835Z" fill="white"/>
</svg>
