<svg width="16" height="16" viewBox="0 0 16 16" fill="none" xmlns="http://www.w3.org/2000/svg">
<g clip-path="url(#clip0_3715_43451)">
<path fill-rule="evenodd" clip-rule="evenodd" d="M1.33329 8.66663C1.70148 8.66663 1.99996 8.9651 1.99996 9.33329V9.99996C1.99996 10.3536 2.14044 10.6927 2.39048 10.9428C2.64053 11.1928 2.97967 11.3333 3.33329 11.3333H6.66663C7.03482 11.3333 7.33329 11.6318 7.33329 12C7.33329 12.3681 7.03482 12.6666 6.66663 12.6666H3.33329C2.62605 12.6666 1.94777 12.3857 1.44767 11.8856C0.947578 11.3855 0.666626 10.7072 0.666626 9.99996V9.33329C0.666626 8.9651 0.965103 8.66663 1.33329 8.66663Z" fill="#475569"/>
<path fill-rule="evenodd" clip-rule="evenodd" d="M8.66663 1.33329C8.66663 0.965103 8.9651 0.666626 9.33329 0.666626C9.86373 0.666626 10.3724 0.87734 10.7475 1.25241C11.1226 1.62748 11.3333 2.13619 11.3333 2.66663V5.33329C11.3333 5.86373 11.1226 6.37243 10.7475 6.74751C10.3724 7.12258 9.86373 7.33329 9.33329 7.33329C8.9651 7.33329 8.66663 7.03482 8.66663 6.66663C8.66663 6.29844 8.9651 5.99996 9.33329 5.99996C9.5101 5.99996 9.67967 5.92972 9.8047 5.8047C9.92972 5.67967 9.99996 5.5101 9.99996 5.33329V2.66663C9.99996 2.48982 9.92972 2.32025 9.8047 2.19522C9.67967 2.0702 9.5101 1.99996 9.33329 1.99996C8.9651 1.99996 8.66663 1.70148 8.66663 1.33329Z" fill="#475569"/>
<path fill-rule="evenodd" clip-rule="evenodd" d="M12.6666 1.33329C12.6666 0.965103 12.9651 0.666626 13.3333 0.666626C13.8637 0.666626 14.3724 0.87734 14.7475 1.25241C15.1226 1.62748 15.3333 2.13619 15.3333 2.66663V5.33329C15.3333 5.86373 15.1226 6.37243 14.7475 6.74751C14.3724 7.12258 13.8637 7.33329 13.3333 7.33329C12.9651 7.33329 12.6666 7.03482 12.6666 6.66663C12.6666 6.29844 12.9651 5.99996 13.3333 5.99996C13.5101 5.99996 13.6797 5.92972 13.8047 5.8047C13.9297 5.67967 14 5.5101 14 5.33329V2.66663C14 2.48982 13.9297 2.32025 13.8047 2.19522C13.6797 2.0702 13.5101 1.99996 13.3333 1.99996C12.9651 1.99996 12.6666 1.70148 12.6666 1.33329Z" fill="#475569"/>
<path fill-rule="evenodd" clip-rule="evenodd" d="M4.19526 9.52864C4.45561 9.26829 4.87772 9.26829 5.13807 9.52864L7.13807 11.5286C7.39842 11.789 7.39842 12.2111 7.13807 12.4714L5.13807 14.4714C4.87772 14.7318 4.45561 14.7318 4.19526 14.4714C3.93491 14.2111 3.93491 13.789 4.19526 13.5286L5.72386 12L4.19526 10.4714C3.93491 10.2111 3.93491 9.78899 4.19526 9.52864Z" fill="#475569"/>
<path fill-rule="evenodd" clip-rule="evenodd" d="M10.6666 9.99996C10.2984 9.99996 9.99996 10.2984 9.99996 10.6666V13.3333C9.99996 13.7015 10.2984 14 10.6666 14H13.3333C13.7015 14 14 13.7015 14 13.3333V10.6666C14 10.2984 13.7015 9.99996 13.3333 9.99996H10.6666ZM8.66663 10.6666C8.66663 9.56206 9.56206 8.66663 10.6666 8.66663H13.3333C14.4379 8.66663 15.3333 9.56206 15.3333 10.6666V13.3333C15.3333 14.4379 14.4379 15.3333 13.3333 15.3333H10.6666C9.56206 15.3333 8.66663 14.4379 8.66663 13.3333V10.6666Z" fill="#475569"/>
<path fill-rule="evenodd" clip-rule="evenodd" d="M2.66663 1.99996C2.29844 1.99996 1.99996 2.29844 1.99996 2.66663V5.33329C1.99996 5.70148 2.29844 5.99996 2.66663 5.99996H5.33329C5.70148 5.99996 5.99996 5.70148 5.99996 5.33329V2.66663C5.99996 2.29844 5.70148 1.99996 5.33329 1.99996H2.66663ZM0.666626 2.66663C0.666626 1.56206 1.56206 0.666626 2.66663 0.666626H5.33329C6.43786 0.666626 7.33329 1.56206 7.33329 2.66663V5.33329C7.33329 6.43786 6.43786 7.33329 5.33329 7.33329H2.66663C1.56206 7.33329 0.666626 6.43786 0.666626 5.33329V2.66663Z" fill="#475569"/>
</g>
<defs>
<clipPath id="clip0_3715_43451">
<rect width="16" height="16" fill="white"/>
</clipPath>
</defs>
</svg>
