<svg width="16" height="16" viewBox="0 0 16 16" fill="none" xmlns="http://www.w3.org/2000/svg">
<g clip-path="url(#clip0_4106_27975)">
<path fill-rule="evenodd" clip-rule="evenodd" d="M2.66669 6.66732C2.48988 6.66732 2.32031 6.73756 2.19528 6.86258C2.07026 6.9876 2.00002 7.15717 2.00002 7.33398V10.6673C2.00002 10.8441 2.07026 11.0137 2.19528 11.1387C2.32031 11.2637 2.48988 11.334 2.66669 11.334H4.00002C4.36821 11.334 4.66669 11.6325 4.66669 12.0007C4.66669 12.3688 4.36821 12.6673 4.00002 12.6673H2.66669C2.13625 12.6673 1.62755 12.4566 1.25247 12.0815C0.877401 11.7065 0.666687 11.1978 0.666687 10.6673V7.33398C0.666687 6.80355 0.877401 6.29484 1.25247 5.91977C1.62755 5.5447 2.13625 5.33398 2.66669 5.33398H13.3334C13.8638 5.33398 14.3725 5.5447 14.7476 5.91977C15.1226 6.29484 15.3334 6.80355 15.3334 7.33398V10.6673C15.3334 11.1978 15.1226 11.7065 14.7476 12.0815C14.3725 12.4566 13.8638 12.6673 13.3334 12.6673H12C11.6318 12.6673 11.3334 12.3688 11.3334 12.0007C11.3334 11.6325 11.6318 11.334 12 11.334H13.3334C13.5102 11.334 13.6797 11.2637 13.8048 11.1387C13.9298 11.0137 14 10.8441 14 10.6673V7.33398C14 7.15717 13.9298 6.9876 13.8048 6.86258C13.6797 6.73756 13.5102 6.66732 13.3334 6.66732H2.66669Z" fill="#475569"/>
<path fill-rule="evenodd" clip-rule="evenodd" d="M3.72384 1.05654C3.97389 0.806491 4.31302 0.666016 4.66665 0.666016H11.3333C11.6869 0.666016 12.0261 0.806491 12.2761 1.05654C12.5262 1.30659 12.6666 1.64573 12.6666 1.99935V5.99935C12.6666 6.36754 12.3682 6.66602 12 6.66602C11.6318 6.66602 11.3333 6.36754 11.3333 5.99935V1.99935H4.66665L4.66665 5.99935C4.66665 6.36754 4.36817 6.66602 3.99998 6.66602C3.63179 6.66602 3.33331 6.36754 3.33331 5.99935V1.99935C3.33331 1.64573 3.47379 1.30659 3.72384 1.05654Z" fill="#475569"/>
<path fill-rule="evenodd" clip-rule="evenodd" d="M4.66665 9.99935V13.9993H11.3333V9.99935H4.66665ZM3.33331 9.99935C3.33331 9.26297 3.93027 8.66602 4.66665 8.66602H11.3333C12.0697 8.66602 12.6666 9.26297 12.6666 9.99935V13.9993C12.6666 14.7357 12.0697 15.3327 11.3333 15.3327H4.66665C3.93027 15.3327 3.33331 14.7357 3.33331 13.9993V9.99935Z" fill="#475569"/>
</g>
<defs>
<clipPath id="clip0_4106_27975">
<rect width="16" height="16" fill="white"/>
</clipPath>
</defs>
</svg>
