<svg width="56" height="56" viewBox="0 0 56 56" fill="none" xmlns="http://www.w3.org/2000/svg">
<g filter="url(#filter0_d_612_125499)">
<rect x="12" y="7.59998" width="32" height="32" rx="16" fill="white"/>
<rect x="11.5" y="7.09998" width="33" height="33" rx="16.5" stroke="#E2E8F0"/>
<path fill-rule="evenodd" clip-rule="evenodd" d="M27.9975 16.9334C27.9983 16.9334 27.9991 16.9333 28 16.9333C29.7681 16.9333 31.4638 17.6357 32.714 18.886C33.9643 20.1362 34.6666 21.8319 34.6666 23.6C34.6666 23.9682 34.3682 24.2667 34 24.2667C33.6318 24.2667 33.3333 23.9682 33.3333 23.6C33.3333 22.1855 32.7714 20.829 31.7712 19.8288C30.7713 18.8289 29.4153 18.267 28.0012 18.2667C26.4982 18.2727 25.0555 18.8586 23.974 19.9022L22.4714 21.4048C22.211 21.6651 21.7889 21.6651 21.5286 21.4048C21.2682 21.1444 21.2682 20.7223 21.5286 20.4619L23.0352 18.9553C23.0379 18.9526 23.0406 18.95 23.0433 18.9474C24.373 17.6619 26.1481 16.9403 27.9975 16.9334Z" fill="#0F172A"/>
<path fill-rule="evenodd" clip-rule="evenodd" d="M22 16.9333C22.3682 16.9333 22.6666 17.2318 22.6666 17.6V20.2667H25.3333C25.7015 20.2667 26 20.5652 26 20.9333C26 21.3015 25.7015 21.6 25.3333 21.6H22C21.6318 21.6 21.3333 21.3015 21.3333 20.9333V17.6C21.3333 17.2318 21.6318 16.9333 22 16.9333Z" fill="#0F172A"/>
<path fill-rule="evenodd" clip-rule="evenodd" d="M22 22.9333C22.3682 22.9333 22.6666 23.2318 22.6666 23.6C22.6666 25.0145 23.2285 26.3711 24.2287 27.3713C25.2287 28.3712 26.5847 28.933 27.9988 28.9333C29.5018 28.9274 30.9445 28.3414 32.026 27.2978L33.5286 25.7953C33.7889 25.5349 34.211 25.5349 34.4714 25.7953C34.7317 26.0556 34.7317 26.4777 34.4714 26.7381L32.9647 28.2448C32.9621 28.2474 32.9594 28.25 32.9567 28.2527C31.627 29.5381 29.8519 30.2597 28.0025 30.2667C28.0017 30.2667 28.0008 30.2667 28 30.2667C26.2319 30.2667 24.5362 29.5643 23.2859 28.3141C22.0357 27.0638 21.3333 25.3681 21.3333 23.6C21.3333 23.2318 21.6318 22.9333 22 22.9333Z" fill="#0F172A"/>
<path fill-rule="evenodd" clip-rule="evenodd" d="M30 26.2666C30 25.8985 30.2985 25.6 30.6667 25.6H34C34.3682 25.6 34.6667 25.8985 34.6667 26.2666V29.6C34.6667 29.9682 34.3682 30.2666 34 30.2666C33.6318 30.2666 33.3333 29.9682 33.3333 29.6V26.9333H30.6667C30.2985 26.9333 30 26.6348 30 26.2666Z" fill="#0F172A"/>
</g>
<defs>
<filter id="filter0_d_612_125499" x="0" y="-2.43187e-05" width="56" height="56" filterUnits="userSpaceOnUse" color-interpolation-filters="sRGB">
<feFlood flood-opacity="0" result="BackgroundImageFix"/>
<feColorMatrix in="SourceAlpha" type="matrix" values="0 0 0 0 0 0 0 0 0 0 0 0 0 0 0 0 0 0 127 0" result="hardAlpha"/>
<feMorphology radius="1" operator="erode" in="SourceAlpha" result="effect1_dropShadow_612_125499"/>
<feOffset dy="4.4"/>
<feGaussianBlur stdDeviation="6"/>
<feColorMatrix type="matrix" values="0 0 0 0 0.870833 0 0 0 0 0.870833 0 0 0 0 0.870833 0 0 0 0.36 0"/>
<feBlend mode="normal" in2="BackgroundImageFix" result="effect1_dropShadow_612_125499"/>
<feBlend mode="normal" in="SourceGraphic" in2="effect1_dropShadow_612_125499" result="shape"/>
</filter>
</defs>
</svg>
