<svg width="16" height="16" viewBox="0 0 16 16" fill="none" xmlns="http://www.w3.org/2000/svg">
<g clip-path="url(#clip0_3715_43473)">
<path fill-rule="evenodd" clip-rule="evenodd" d="M2.58579 1.25241C2.96086 0.87734 3.46957 0.666626 4 0.666626H10C10.1768 0.666626 10.3464 0.736864 10.4714 0.861888L13.8047 4.19522C13.9298 4.32025 14 4.48982 14 4.66663V13.3333C14 13.8637 13.7893 14.3724 13.4142 14.7475C13.0391 15.1226 12.5304 15.3333 12 15.3333H10.6667C10.2985 15.3333 10 15.0348 10 14.6666C10 14.2984 10.2985 14 10.6667 14H12C12.1768 14 12.3464 13.9297 12.4714 13.8047C12.5964 13.6797 12.6667 13.5101 12.6667 13.3333V4.94277L9.72386 1.99996H4C3.82319 1.99996 3.65362 2.0702 3.5286 2.19522C3.40357 2.32025 3.33333 2.48981 3.33333 2.66663V4.66663C3.33333 5.03482 3.03486 5.33329 2.66667 5.33329C2.29848 5.33329 2 5.03482 2 4.66663V2.66663C2 2.13619 2.21071 1.62749 2.58579 1.25241Z" fill="#475569"/>
<path fill-rule="evenodd" clip-rule="evenodd" d="M9.33329 0.666626C9.70148 0.666626 9.99996 0.965103 9.99996 1.33329V3.99996C9.99996 4.17677 10.0702 4.34634 10.1952 4.47136C10.3202 4.59639 10.4898 4.66663 10.6666 4.66663H13.3333C13.7015 4.66663 14 4.9651 14 5.33329C14 5.70148 13.7015 5.99996 13.3333 5.99996H10.6666C10.1362 5.99996 9.62749 5.78925 9.25241 5.41417C8.87734 5.0391 8.66663 4.53039 8.66663 3.99996V1.33329C8.66663 0.965103 8.9651 0.666626 9.33329 0.666626Z" fill="#475569"/>
<path fill-rule="evenodd" clip-rule="evenodd" d="M5.33329 7.33333C3.49234 7.33333 1.99996 8.82572 1.99996 10.6667C1.99996 12.5076 3.49234 14 5.33329 14C7.17424 14 8.66663 12.5076 8.66663 10.6667C8.66663 8.82572 7.17424 7.33333 5.33329 7.33333ZM0.666626 10.6667C0.666626 8.08934 2.75596 6 5.33329 6C7.91062 6 9.99996 8.08934 9.99996 10.6667C9.99996 13.244 7.91062 15.3333 5.33329 15.3333C2.75596 15.3333 0.666626 13.244 0.666626 10.6667Z" fill="#475569"/>
<path fill-rule="evenodd" clip-rule="evenodd" d="M5.33329 8.66663C5.70148 8.66663 5.99996 8.9651 5.99996 9.33329V10.521L6.76008 11.1545C7.04293 11.3902 7.08115 11.8106 6.84544 12.0934C6.60973 12.3763 6.18935 12.4145 5.9065 12.1788L4.9065 11.3454C4.75451 11.2188 4.66663 11.0311 4.66663 10.8333V9.33329C4.66663 8.9651 4.9651 8.66663 5.33329 8.66663Z" fill="#475569"/>
</g>
<defs>
<clipPath id="clip0_3715_43473">
<rect width="16" height="16" fill="white"/>
</clipPath>
</defs>
</svg>
