<svg width="16" height="16" viewBox="0 0 16 16" fill="none" xmlns="http://www.w3.org/2000/svg">
<g clip-path="url(#clip0_4106_40774)">
<path fill-rule="evenodd" clip-rule="evenodd" d="M7.75378 2.81993C7.75364 2.81999 7.7535 2.82004 7.75335 2.8201L2.42002 4.95343C2.2965 5.00263 2.19051 5.08762 2.11567 5.19751C2.04104 5.30709 2.00078 5.43642 2.00002 5.56898V13.3341C2.00002 13.5109 2.07026 13.6805 2.19528 13.8055C2.32031 13.9305 2.48988 14.0007 2.66669 14.0007H13.3334C13.5102 14.0007 13.6797 13.9305 13.8048 13.8055C13.9298 13.6805 14 13.5109 14 13.3341V5.56894C13.9993 5.4364 13.959 5.30708 13.8844 5.19751C13.8095 5.08762 13.7035 5.00263 13.58 4.95343L8.24669 2.8201C8.24657 2.82005 8.24646 2.82001 8.24635 2.81996C8.08818 2.75707 7.91195 2.75706 7.75378 2.81993ZM7.26002 1.58139C7.7352 1.39214 8.26484 1.39214 8.74002 1.58139L14.0733 3.71472C14.0735 3.71479 14.0737 3.71486 14.0739 3.71493C14.4442 3.86254 14.762 4.11745 14.9864 4.44695C15.2109 4.77661 15.3317 5.16587 15.3333 5.56472L15.3334 5.56741V13.3341C15.3334 13.8645 15.1226 14.3732 14.7476 14.7483C14.3725 15.1234 13.8638 15.3341 13.3334 15.3341H2.66669C2.13625 15.3341 1.62755 15.1234 1.25247 14.7483C0.877401 14.3732 0.666687 13.8645 0.666687 13.3341V5.56741C0.666687 5.56651 0.666689 5.56562 0.666692 5.56472C0.668302 5.16587 0.789131 4.77661 1.01365 4.44695C1.23808 4.11744 1.55586 3.86252 1.92619 3.71492C1.92636 3.71485 1.92653 3.71479 1.92669 3.71472L7.26002 1.58139Z" fill="#475569"/>
<path fill-rule="evenodd" clip-rule="evenodd" d="M3.33331 12.0007C3.33331 11.6325 3.63179 11.334 3.99998 11.334H12C12.3682 11.334 12.6666 11.6325 12.6666 12.0007C12.6666 12.3688 12.3682 12.6673 12 12.6673H3.99998C3.63179 12.6673 3.33331 12.3688 3.33331 12.0007Z" fill="#475569"/>
<path fill-rule="evenodd" clip-rule="evenodd" d="M3.33331 9.33268C3.33331 8.96449 3.63179 8.66602 3.99998 8.66602H12C12.3682 8.66602 12.6666 8.96449 12.6666 9.33268C12.6666 9.70087 12.3682 9.99935 12 9.99935H3.99998C3.63179 9.99935 3.33331 9.70087 3.33331 9.33268Z" fill="#475569"/>
<path fill-rule="evenodd" clip-rule="evenodd" d="M3.33331 6.66667C3.33331 6.29848 3.63179 6 3.99998 6H12C12.3682 6 12.6666 6.29848 12.6666 6.66667V14.6667C12.6666 15.0349 12.3682 15.3333 12 15.3333H3.99998C3.63179 15.3333 3.33331 15.0349 3.33331 14.6667V6.66667ZM4.66665 7.33333V14H11.3333V7.33333H4.66665Z" fill="#475569"/>
</g>
<defs>
<clipPath id="clip0_4106_40774">
<rect width="16" height="16" fill="white"/>
</clipPath>
</defs>
</svg>
