<svg width="16" height="16" viewBox="0 0 16 16" fill="none" xmlns="http://www.w3.org/2000/svg">
<g clip-path="url(#clip0_4106_27968)">
<path fill-rule="evenodd" clip-rule="evenodd" d="M5.46661 6.13346C5.46661 5.76527 5.76509 5.4668 6.13328 5.4668H6.13995C6.50814 5.4668 6.80661 5.76527 6.80661 6.13346C6.80661 6.50165 6.50814 6.80013 6.13995 6.80013H6.13328C5.76509 6.80013 5.46661 6.50165 5.46661 6.13346Z" fill="#475569"/>
<path fill-rule="evenodd" clip-rule="evenodd" d="M10.1381 5.86128C10.3984 6.12163 10.3984 6.54374 10.1381 6.80409L6.80476 10.1374C6.54441 10.3978 6.1223 10.3978 5.86195 10.1374C5.6016 9.87707 5.6016 9.45496 5.86195 9.19461L9.19528 5.86128C9.45563 5.60093 9.87774 5.60093 10.1381 5.86128Z" fill="#475569"/>
<path fill-rule="evenodd" clip-rule="evenodd" d="M9.1333 9.86589C9.1333 9.4977 9.43178 9.19922 9.79997 9.19922H9.80663C10.1748 9.19922 10.4733 9.4977 10.4733 9.86589C10.4733 10.2341 10.1748 10.5326 9.80663 10.5326H9.79997C9.43178 10.5326 9.1333 10.2341 9.1333 9.86589Z" fill="#475569"/>
<path fill-rule="evenodd" clip-rule="evenodd" d="M6.38851 1.33516C7.26713 0.455908 8.72638 0.455989 9.60489 1.3354L14.6644 6.39492C15.5436 7.27345 15.5438 8.73276 14.6647 9.6113L9.60489 14.6711C8.72628 15.5503 7.26678 15.5505 6.38827 14.6711L1.32875 9.60488L1.79991 9.13323L1.3282 9.60433L1.32875 9.60488C0.449495 8.72626 0.449339 7.27343 1.32875 6.39492M14.6647 9.6113C14.6646 9.61138 14.6647 9.61122 14.6647 9.6113V9.6113ZM8.6616 2.27773C8.30382 1.91958 7.68934 1.91958 7.33156 2.27773L2.27132 7.33797C1.91317 7.69575 1.91293 8.3038 2.27108 8.66158L2.27163 8.66214L7.33156 13.7287C7.33154 13.7287 7.33158 13.7288 7.33156 13.7287C7.68935 14.0868 8.30384 14.0869 8.6616 13.7287L13.7218 8.66849C14.08 8.31071 14.0802 7.69599 13.7221 7.33821L8.6616 2.27773Z" fill="#475569"/>
</g>
<defs>
<clipPath id="clip0_4106_27968">
<rect width="16" height="16" fill="white"/>
</clipPath>
</defs>
</svg>
